<svg width="64" height="64" viewBox="0 0 64 64" fill="none" xmlns="http://www.w3.org/2000/svg">
<path d="M43.5405 40.2163C49.9324 40.2163 54 46.0271 54 49.5136C54 52.3027 50.9009 53 49.3514 53H14.4865C13.3243 52.8063 11 51.8379 11 49.5136C11 43.4703 17.1982 40.7973 21.4595 40.2163C22.4279 37.8919 25.8757 33.2433 31.9189 33.2433C37.9622 33.2433 42.1847 37.8919 43.5405 40.2163ZM43.5405 40.2163C42.3784 40.2163 39.5892 40.4487 37.7297 41.3784" stroke="#999999" stroke-width="2" stroke-linecap="round" stroke-linejoin="round"/>
<path d="M31.919 33.2432V26.2703M31.919 21.6216C31.919 17.7477 35.173 10 48.1892 10C49.3514 15.4234 47.7244 26.2703 31.919 26.2703M31.919 21.6216V26.2703M31.919 21.6216C31.5316 17.7477 27.7352 10 15.6487 10C15.6487 24.8757 26.4955 27.045 31.919 26.2703M31.919 26.2703L42.3784 15.8108M31.919 26.2703L21.4595 15.8108" stroke="#999999" stroke-width="2" stroke-linecap="round" stroke-linejoin="round"/>
</svg>
