<svg width="64" height="64" viewBox="0 0 64 64" fill="none" xmlns="http://www.w3.org/2000/svg">
<path fill-rule="evenodd" clip-rule="evenodd" d="M51.2117 17.7266C46.8973 11.974 38.3142 11.8399 33.8222 17.4549L32.0001 19.7325L30.178 17.4549C25.686 11.8399 17.1029 11.974 12.7885 17.7266L12.3391 18.3257C8.86879 22.9528 8.25353 28.922 10.3346 33.9999H12.5231C10.3105 29.4027 10.7278 23.8075 13.9391 19.5257L14.3885 18.9266C17.9185 14.2199 24.941 14.1102 28.6163 18.7043L31.2192 21.958L32.0001 22.9341L32.781 21.958L35.3839 18.7043C39.0592 14.1102 46.0817 14.2199 49.6117 18.9266L50.0611 19.5257C53.2724 23.8075 53.6897 29.4027 51.4771 33.9999H53.6656C55.7467 28.922 55.1314 22.9528 51.6611 18.3257L51.2117 17.7266ZM49.4143 39.9999H46.5859L32.0001 54.5857L17.4143 39.9999H14.5859L31.293 56.7071L32.0001 57.4142L32.7072 56.7071L49.4143 39.9999Z" fill="#999999"/>
<path d="M6 37.3333H20.6667L26.6667 27.3333L32.6667 43.3333L38 37.3333H58.6667" stroke="#999999" stroke-width="2" stroke-linecap="round"/>
</svg>
