<svg width="64" height="64" viewBox="0 0 64 64" fill="none" xmlns="http://www.w3.org/2000/svg">
<circle cx="32.5" cy="31.5" r="21.5" stroke="#999999" stroke-width="2"/>
<path d="M43.7501 13.1447C43.158 13.5395 42.5659 15.0395 44.9343 17.8816C45.5264 18.671 46.237 20.8421 44.3422 23.2105C41.9738 26.171 40.1975 29.7237 46.7107 33.8684C48.2896 33.8684 50.5002 35.4079 46.7107 41.5658C45.7238 42.9474 43.987 46.421 44.9343 49.2632M37.2369 10.1842C37.4342 11.7632 36.7632 15.1579 32.5 16.1053C27.1711 17.2895 25.3947 18.4737 24.2105 22.0263C23.2632 24.8684 22.2369 23.2105 21.8421 22.0263C21.4474 20.8421 20.3026 18.9474 18.8816 20.8421C17.1053 23.2105 19.4737 24.3947 18.2895 26.171C17.1053 27.9474 21.8423 30.9079 23.0264 31.5C24.2105 32.0921 26.579 29.1316 28.9474 32.6842C31.3158 36.2368 31.9079 38.0132 34.2764 38.6053C36.6448 39.1974 40.7895 41.5658 37.829 44.5263C34.8685 47.4868 32.5001 46.3026 30.1316 48.671C28.2369 50.5658 27.3685 51.8289 27.1711 52.2237M21.8421 49.8553C22.8289 48.0789 24.2105 44.0526 21.8421 42.1579C18.8816 39.7895 18.8816 38.6053 19.4737 36.2368C20.0658 33.8684 20.6579 33.8684 18.8816 32.6842C17.1053 31.5 12.3685 29.1316 11.7764 26.7632" stroke="#999999" stroke-width="2"/>
</svg>
