<svg width="64" height="64" viewBox="0 0 64 64" fill="none" xmlns="http://www.w3.org/2000/svg">
<path d="M32 47.6379C28.6667 46.1379 19.1 44.4379 7.5 49.6379V17.6379C8.5 17.4712 11 17.5 12 18.1379M32 47.6379C30.1667 45.6379 23.6 42.0379 12 43.6379V18.1379M32 47.6379V20.6379M32 47.6379C33.5 45.4712 39.6 41.6379 52 43.6379V18.1379M32 47.6379C36 46.1379 46.5 44.4379 56.5 49.6379V18.1379C55.8333 17.8045 53.5 17.6379 52 18.1379M32 20.6379C26.4 13.4379 16.3333 14.6379 12 16.1379V18.1379M32 20.6379C38.5 13.5 48.1667 14.6379 52 16.1379V18.1379" stroke="#999999" stroke-width="2" stroke-linecap="round" stroke-linejoin="round"/>
</svg>
