<svg width="64" height="64" viewBox="0 0 64 64" fill="none" xmlns="http://www.w3.org/2000/svg">
<path d="M30 12C32 12 36.6 12 39 12C41.4 12 42.3333 13 42.5 13.5L46 19.5L49 17.5L44 28.5L33 27L36.5 25L32.25 16.5L30 12ZM30 12C29.6667 12 28.6 12 27 12C25.4 12 24 13 23.5 13.5L20.5 18.5L28.5 23.5L30.375 20" stroke="#999999" stroke-width="2" stroke-linecap="round" stroke-linejoin="round"/>
<path d="M50.7896 40.9772C49.7896 42.7093 47.4895 46.693 46.2895 48.7715C45.0895 50.8499 43.7569 51.1582 43.2405 51.0526L36.2944 51.0836L36.5264 54.6817L29.5001 44.8516L36.2992 36.0753L36.2812 40.1064L45.7674 40.6758L50.7896 40.9772ZM50.7896 40.9772C50.9562 40.6886 51.4896 39.7648 52.2896 38.3792C53.0896 36.9935 52.9235 35.2811 52.7405 34.5981L49.9104 29.5L41.5803 33.9282L43.6738 37.302" stroke="#999999" stroke-width="2" stroke-linecap="round" stroke-linejoin="round"/>
<path d="M14.5 44.2045C13.5 42.4725 11.2 38.4888 10 36.4103C8.8 34.3318 9.19936 33.0235 9.54904 32.6292L12.9952 26.5981L9.76314 25L21.7894 23.8302L25.9904 34.1064L22.5083 32.0754L17.2721 40.006L14.5 44.2045ZM14.5 44.2045C14.6667 44.4932 15.2 45.417 16 46.8026C16.8 48.1882 18.366 48.9007 19.049 49.0837L24.8792 49.1818L25.2093 39.7536L21.2407 39.8798" stroke="#999999" stroke-width="2" stroke-linecap="round" stroke-linejoin="round"/>
</svg>
