<svg width="36" height="36" viewBox="0 0 36 36" fill="none" xmlns="http://www.w3.org/2000/svg">
<path d="M29.3004 31H11.0754V4H23.2254L29.3004 10V31Z" fill="white"/>
<path d="M23.2254 4H11.0754V31H29.3004V10M23.2254 4V10H29.3004M23.2254 4L29.3004 10" stroke="#333333" stroke-width="1.5" stroke-linecap="round" stroke-linejoin="round"/>
<path d="M5 14C5 13.4477 5.44772 13 6 13H22.225C22.7773 13 23.225 13.4477 23.225 14V24C23.225 24.5523 22.7773 25 22.225 25H6C5.44772 25 5 24.5523 5 24V14Z" fill="#333333"/>
<path d="M21.75 14.5H6.5V23.5H21.75V14.5Z" fill="white"/>
<path d="M10.3922 16.8C10.7962 16.8 11.1362 16.936 11.4122 17.208C11.6882 17.48 11.8262 17.814 11.8262 18.21C11.8262 18.606 11.6882 18.94 11.4122 19.212C11.1362 19.484 10.7962 19.62 10.3922 19.62H9.65417V21H8.82617V16.8H10.3922ZM10.3922 18.846C10.5682 18.846 10.7142 18.786 10.8302 18.666C10.9462 18.542 11.0042 18.39 11.0042 18.21C11.0042 18.026 10.9462 17.874 10.8302 17.754C10.7142 17.634 10.5682 17.574 10.3922 17.574H9.65417V18.846H10.3922Z" fill="#333333"/>
<path d="M14.1332 16.8C14.7092 16.8 15.1892 17.002 15.5732 17.406C15.9612 17.81 16.1552 18.308 16.1552 18.9C16.1552 19.492 15.9612 19.99 15.5732 20.394C15.1892 20.798 14.7092 21 14.1332 21H12.4652V16.8H14.1332ZM14.1332 20.208C14.4972 20.208 14.7932 20.088 15.0212 19.848C15.2492 19.604 15.3632 19.288 15.3632 18.9C15.3632 18.512 15.2492 18.198 15.0212 17.958C14.7932 17.714 14.4972 17.592 14.1332 17.592H13.2932V20.208H14.1332Z" fill="#333333"/>
<path d="M19.3506 17.592H17.6706V18.588H19.3026V19.38H17.6706V21H16.8426V16.8H19.3506V17.592Z" fill="#333333"/>
</svg>
