<svg width="24" height="24" viewBox="0 0 24 24" fill="none" xmlns="http://www.w3.org/2000/svg">
<path d="M22 23H7V1H17L22 5.88889V23Z" fill="white"/>
<path d="M17 1H7V23H22V5.88889M17 1V5.88889H22M17 1L22 5.88889" stroke="#3F91CD" stroke-width="1.5" stroke-linecap="round" stroke-linejoin="round"/>
<mask id="path-3-inside-1" fill="white">
<rect x="2" y="8" width="16.2" height="10.6667" rx="1"/>
</mask>
<rect x="2" y="8" width="16.2" height="10.6667" rx="1" fill="white" stroke="#3F91CD" stroke-width="3" stroke-linecap="round" stroke-linejoin="round" mask="url(#path-3-inside-1)"/>
<path d="M6.21406 11.4834C6.5844 11.4834 6.89606 11.608 7.14906 11.8574C7.40206 12.1067 7.52856 12.4129 7.52856 12.7759C7.52856 13.1389 7.40206 13.445 7.14906 13.6944C6.89606 13.9437 6.5844 14.0684 6.21406 14.0684H5.53756V15.3334H4.77856V11.4834H6.21406ZM6.21406 13.3589C6.3754 13.3589 6.50923 13.3039 6.61556 13.1939C6.7219 13.0802 6.77506 12.9409 6.77506 12.7759C6.77506 12.6072 6.7219 12.4679 6.61556 12.3579C6.50923 12.2479 6.3754 12.1929 6.21406 12.1929H5.53756V13.3589H6.21406Z" fill="#3F91CD"/>
<path d="M10.2502 11.4834H11.0092V15.3334H10.4317L8.7817 12.9794V15.3334H8.02271V11.4834H8.6002L10.2502 13.8319V11.4834Z" fill="#3F91CD"/>
<path d="M15.5019 13.2654V13.5624C15.5019 14.1124 15.3259 14.5579 14.9739 14.8989C14.6219 15.2399 14.1672 15.4104 13.6099 15.4104C13.0159 15.4104 12.5227 15.2179 12.1304 14.8329C11.7417 14.4442 11.5474 13.9712 11.5474 13.4139C11.5474 12.8529 11.7399 12.378 12.1249 11.9894C12.5136 11.6007 12.9939 11.4064 13.5659 11.4064C13.9252 11.4064 14.2534 11.4889 14.5504 11.6539C14.8474 11.8152 15.0784 12.0315 15.2434 12.3029L14.5944 12.6769C14.5027 12.5192 14.3634 12.3909 14.1764 12.2919C13.9931 12.1929 13.7877 12.1434 13.5604 12.1434C13.1937 12.1434 12.8912 12.2644 12.6529 12.5064C12.4182 12.7447 12.3009 13.0472 12.3009 13.4139C12.3009 13.7769 12.4201 14.0775 12.6584 14.3159C12.9004 14.5505 13.2194 14.6679 13.6154 14.6679C13.9087 14.6679 14.1507 14.6037 14.3414 14.4754C14.5357 14.3434 14.6677 14.1637 14.7374 13.9364H13.5714V13.2654H15.5019Z" fill="#3F91CD"/>
</svg>
