<svg width="36" height="36" viewBox="0 0 36 36" fill="none" xmlns="http://www.w3.org/2000/svg">
<path d="M29.3004 31H11.0754V4H23.2254L29.3004 10V31Z" fill="white"/>
<path d="M23.2254 4H11.0754V31H29.3004V10M23.2254 4V10H29.3004M23.2254 4L29.3004 10" stroke="#333333" stroke-width="1.5" stroke-linecap="round" stroke-linejoin="round"/>
<path d="M5 14C5 13.4477 5.44772 13 6 13H22.225C22.7773 13 23.225 13.4477 23.225 14V24C23.225 24.5523 22.7773 25 22.225 25H6C5.44772 25 5 24.5523 5 24V14Z" fill="#333333"/>
<path d="M21.75 14.5H6.5V23.5H21.75V14.5Z" fill="white"/>
<path d="M12.4958 20.9999H11.5538L10.7378 19.6319L9.92184 20.9999H8.98584L10.2698 18.8459L9.05184 16.7999H9.98784L10.7378 18.0599L11.4878 16.7999H12.4238L11.2058 18.8399L12.4958 20.9999Z" fill="#333333"/>
<path d="M13.8879 20.2079H15.4899V20.9999H13.0599V16.7999H13.8879V20.2079Z" fill="#333333"/>
<path d="M17.4182 21.0839C17.0022 21.0839 16.6522 20.9919 16.3682 20.8079C16.0842 20.6199 15.8842 20.3659 15.7682 20.0459L16.4762 19.6319C16.6402 20.0599 16.9622 20.2739 17.4422 20.2739C17.6742 20.2739 17.8442 20.2319 17.9522 20.1479C18.0602 20.0639 18.1142 19.9579 18.1142 19.8299C18.1142 19.6819 18.0482 19.5679 17.9162 19.4879C17.7842 19.4039 17.5482 19.3139 17.2082 19.2179C17.0202 19.1619 16.8602 19.1059 16.7282 19.0499C16.6002 18.9939 16.4702 18.9199 16.3382 18.8279C16.2102 18.7319 16.1122 18.6119 16.0442 18.4679C15.9762 18.3239 15.9422 18.1559 15.9422 17.9639C15.9422 17.5839 16.0762 17.2819 16.3442 17.0579C16.6162 16.8299 16.9422 16.7159 17.3222 16.7159C17.6622 16.7159 17.9602 16.7999 18.2162 16.9679C18.4762 17.1319 18.6782 17.3619 18.8222 17.6579L18.1262 18.0599C17.9582 17.6999 17.6902 17.5199 17.3222 17.5199C17.1502 17.5199 17.0142 17.5599 16.9142 17.6399C16.8182 17.7159 16.7702 17.8159 16.7702 17.9399C16.7702 18.0719 16.8242 18.1799 16.9322 18.2639C17.0442 18.3439 17.2562 18.4319 17.5682 18.5279C17.6962 18.5679 17.7922 18.5999 17.8562 18.6239C17.9242 18.6439 18.0142 18.6779 18.1262 18.7259C18.2422 18.7699 18.3302 18.8119 18.3902 18.8519C18.4542 18.8919 18.5262 18.9459 18.6062 19.0139C18.6862 19.0819 18.7462 19.1519 18.7862 19.2239C18.8302 19.2959 18.8662 19.3839 18.8942 19.4879C18.9262 19.5879 18.9422 19.6979 18.9422 19.8179C18.9422 20.2059 18.8002 20.5139 18.5162 20.7419C18.2362 20.9699 17.8702 21.0839 17.4182 21.0839Z" fill="#333333"/>
</svg>
