<svg width="36" height="36" viewBox="0 0 36 36" fill="none" xmlns="http://www.w3.org/2000/svg">
<path d="M29.3004 31H11.0754V4H23.2254L29.3004 10V31Z" fill="white"/>
<path d="M23.2254 4H11.0754V31H29.3004V10M23.2254 4V10H29.3004M23.2254 4L29.3004 10" stroke="#333333" stroke-width="1.5" stroke-linecap="round" stroke-linejoin="round"/>
<path d="M5 14C5 13.4477 5.44772 13 6 13H22.225C22.7773 13 23.225 13.4477 23.225 14V24C23.225 24.5523 22.7773 25 22.225 25H6C5.44772 25 5 24.5523 5 24V14Z" fill="#333333"/>
<path d="M21.75 14.5H6.5V23.5H21.75V14.5Z" fill="white"/>
<path d="M9.26663 16.7999C9.84263 16.7999 10.3226 17.0019 10.7066 17.4059C11.0946 17.8099 11.2886 18.3079 11.2886 18.8999C11.2886 19.4919 11.0946 19.9899 10.7066 20.3939C10.3226 20.7979 9.84263 20.9999 9.26663 20.9999H7.59863V16.7999H9.26663ZM9.26663 20.2079C9.63063 20.2079 9.92663 20.0879 10.1546 19.8479C10.3826 19.6039 10.4966 19.2879 10.4966 18.8999C10.4966 18.5119 10.3826 18.1979 10.1546 17.9579C9.92663 17.7139 9.63063 17.5919 9.26663 17.5919H8.42663V20.2079H9.26663Z" fill="#333333"/>
<path d="M15.51 20.4539C15.086 20.8739 14.57 21.0839 13.962 21.0839C13.354 21.0839 12.838 20.8739 12.414 20.4539C11.994 20.0299 11.784 19.5119 11.784 18.8999C11.784 18.2879 11.994 17.7719 12.414 17.3519C12.838 16.9279 13.354 16.7159 13.962 16.7159C14.57 16.7159 15.086 16.9279 15.51 17.3519C15.934 17.7719 16.146 18.2879 16.146 18.8999C16.146 19.5119 15.934 20.0299 15.51 20.4539ZM12.996 19.8899C13.256 20.1459 13.578 20.2739 13.962 20.2739C14.346 20.2739 14.668 20.1459 14.928 19.8899C15.188 19.6299 15.318 19.2999 15.318 18.8999C15.318 18.4999 15.188 18.1699 14.928 17.9099C14.668 17.6499 14.346 17.5199 13.962 17.5199C13.578 17.5199 13.256 17.6499 12.996 17.9099C12.736 18.1699 12.606 18.4999 12.606 18.8999C12.606 19.2999 12.736 19.6299 12.996 19.8899Z" fill="#333333"/>
<path d="M18.8199 21.0839C18.1879 21.0839 17.6659 20.8739 17.2539 20.4539C16.8419 20.0339 16.6359 19.5159 16.6359 18.8999C16.6359 18.2799 16.8419 17.7619 17.2539 17.3459C17.6659 16.9259 18.1879 16.7159 18.8199 16.7159C19.1999 16.7159 19.5499 16.8059 19.8699 16.9859C20.1939 17.1619 20.4459 17.4019 20.6259 17.7059L19.9119 18.1199C19.8079 17.9319 19.6599 17.7859 19.4679 17.6819C19.2759 17.5739 19.0599 17.5199 18.8199 17.5199C18.4119 17.5199 18.0819 17.6479 17.8299 17.9039C17.5819 18.1599 17.4579 18.4919 17.4579 18.8999C17.4579 19.3039 17.5819 19.6339 17.8299 19.8899C18.0819 20.1459 18.4119 20.2739 18.8199 20.2739C19.0599 20.2739 19.2759 20.2219 19.4679 20.1179C19.6639 20.0099 19.8119 19.8639 19.9119 19.6799L20.6259 20.0939C20.4459 20.3979 20.1959 20.6399 19.8759 20.8199C19.5559 20.9959 19.2039 21.0839 18.8199 21.0839Z" fill="#333333"/>
</svg>
