<svg width="24" height="24" viewBox="0 0 24 24" fill="none" xmlns="http://www.w3.org/2000/svg">
<path d="M22 23H7V1H17L22 5.88889V23Z" fill="white"/>
<path d="M17 1H7V23H22V5.88889M17 1V5.88889H22M17 1L22 5.88889" stroke="#3F91CD" stroke-width="1.5" stroke-linecap="round" stroke-linejoin="round"/>
<mask id="path-3-inside-1" fill="white">
<rect x="2" y="8" width="16.2" height="10.6667" rx="1"/>
</mask>
<rect x="2" y="8" width="16.2" height="10.6667" rx="1" fill="white" stroke="#3F91CD" stroke-width="3" stroke-linecap="round" stroke-linejoin="round" mask="url(#path-3-inside-1)"/>
<path d="M7.43629 14.3159H9.06979V15.0419H6.46829V14.4369L8.06879 11.9179H6.50679V11.1919H9.03679V11.7914L7.43629 14.3159ZM9.57115 11.1919H10.3301V15.0419H9.57115V11.1919ZM12.4783 11.1919C12.8487 11.1919 13.1603 11.3166 13.4133 11.5659C13.6663 11.8152 13.7928 12.1214 13.7928 12.4844C13.7928 12.8474 13.6663 13.1536 13.4133 13.4029C13.1603 13.6522 12.8487 13.7769 12.4783 13.7769H11.8018V15.0419H11.0428V11.1919H12.4783ZM12.4783 13.0674C12.6397 13.0674 12.7735 13.0124 12.8798 12.9024C12.9862 12.7887 13.0393 12.6494 13.0393 12.4844C13.0393 12.3157 12.9862 12.1764 12.8798 12.0664C12.7735 11.9564 12.6397 11.9014 12.4783 11.9014H11.8018V13.0674H12.4783Z" fill="#3F91CD"/>
</svg>
