<svg width="24" height="24" viewBox="0 0 24 24" fill="none" xmlns="http://www.w3.org/2000/svg">
<path d="M22 23H7V1H17L22 5.88889V23Z" fill="white"/>
<path d="M17 1H7V23H22V5.88889M17 1V5.88889H22M17 1L22 5.88889" stroke="#3F91CD" stroke-width="1.5" stroke-linecap="round" stroke-linejoin="round"/>
<mask id="path-3-inside-1" fill="white">
<rect x="2" y="8" width="16.2" height="10.6667" rx="1"/>
</mask>
<rect x="2" y="8" width="16.2" height="10.6667" rx="1" fill="white" stroke="#3F91CD" stroke-width="3" stroke-linecap="round" stroke-linejoin="round" mask="url(#path-3-inside-1)"/>
<path d="M5.0376 15.3333H5.89387V14.0364H6.6137C7.54512 14.0364 8.08696 13.4876 8.08696 12.6888C8.08696 11.8939 7.555 11.3333 6.63545 11.3333H5.0376V15.3333ZM5.89387 13.3587V12.0247H6.47131C6.9657 12.0247 7.20498 12.2903 7.20498 12.6888C7.20498 13.0853 6.9657 13.3587 6.47527 13.3587H5.89387Z" fill="#3F91CD"/>
<path d="M10.0788 15.3333C11.3128 15.3333 12.0603 14.5794 12.0603 13.3294C12.0603 12.0833 11.3128 11.3333 10.0907 11.3333H8.64315V15.3333H10.0788ZM9.49942 14.6087V12.0579H10.0452C10.8046 12.0579 11.206 12.4407 11.206 13.3294C11.206 14.222 10.8046 14.6087 10.0432 14.6087H9.49942Z" fill="#3F91CD"/>
<path d="M12.6946 15.3333H13.5509V13.681H15.1982V12.9837H13.5509V12.0306H15.3762V11.3333H12.6946V15.3333Z" fill="#3F91CD"/>
</svg>
