<svg width="120" height="57" viewBox="0 0 120 57" fill="none" xmlns="http://www.w3.org/2000/svg">
<g opacity="0.9">
<path d="M62.6252 31.2545H61.1309V31.6531H66.2943V31.2545H64.7999V26.3636H66.7032C70.4273 26.3636 71.6936 24.5619 71.6936 22.3775C71.6936 18.7662 68.2566 18.3157 66.7229 18.3157H61.1309V18.7143H62.6252V31.2545ZM64.7999 25.9729V18.6904H66.1409C69.1689 18.6904 69.2476 20.7911 69.2476 21.668V23.1588C69.2476 24.4224 68.6656 25.9729 66.1409 25.9729H64.7999Z" fill="#111111"/>
<path d="M81.8478 20.771C81.9923 20.3773 82.0836 19.9657 82.1191 19.5472C82.1286 19.4298 82.1123 19.3118 82.0713 19.2015C82.0304 19.0913 81.9659 18.9916 81.8824 18.9096C81.7989 18.8277 81.6986 18.7655 81.5885 18.7276C81.4785 18.6896 81.3616 18.6769 81.2461 18.6902H80.9787V18.2916H84.2781V18.6902C83.8861 18.6986 83.5071 18.8339 83.1965 19.0763C82.8859 19.3188 82.6599 19.6556 82.5517 20.0375L79.8304 27.5034C78.4147 31.3778 77.113 31.8881 76.2911 31.8881C74.8361 31.8881 73.6288 30.8278 73.6288 29.5203C73.6288 28.6673 74.0732 27.9259 74.9069 27.9259C75.0676 27.9111 75.2295 27.9299 75.3828 27.9811C75.536 28.0323 75.6772 28.1148 75.7978 28.2235C75.9183 28.3323 76.0155 28.4649 76.0835 28.6132C76.1514 28.7615 76.1886 28.9224 76.1928 29.0859C76.1846 29.4083 76.0518 29.7146 75.8232 29.9389C75.6147 30.2059 75.1075 30.473 75.1075 30.7361C75.1075 31.1068 75.5754 31.5333 76.4484 31.5333C77.3215 31.5333 77.8288 30.5926 78.2535 29.7994L73.2631 18.6902H71.9221V18.2916H77.2664V18.6902H75.6344L79.4607 27.1765L81.8478 20.771Z" fill="#111111"/>
<path d="M93.5468 18.0808V22.4256H93.1536C92.9019 20.034 92.1075 18.4675 89.8346 18.4675C88.5486 18.4675 86.4565 19.3045 86.4565 23.6493V26.9578C86.4565 30.5452 88.4228 31.4859 89.7874 31.4859C91.2503 31.4859 92.8429 30.4615 93.4249 27.2049H93.8929L93.7317 31.6493H93.2322C93.2322 31.466 93.1339 30.8521 92.6148 30.8521C92.2401 30.9116 91.8859 31.0651 91.5845 31.2986C90.8889 31.6627 90.1216 31.8643 89.3391 31.8885C86.0121 31.8885 84.0105 28.6239 84.0105 24.5462C84.0105 20.7913 86.6335 18.0848 89.7166 18.0808C91.2306 18.0808 91.5295 18.7385 92.3002 18.7146C92.5205 18.7146 92.8823 18.7146 93.0867 18.0808H93.5468Z" fill="#111111"/>
<path d="M103.688 31.2547H101.962V31.6533H107.306V31.2547H105.981L101.553 18.304H101.203L96.9122 29.8636C96.6999 30.4336 96.1769 31.1909 95.3196 31.2507V31.6493H98.6229V31.2507C97.5532 31.1909 97.3802 30.8521 97.3802 30.294C97.4114 29.8246 97.5358 29.3663 97.7459 28.9468L98.4459 27.1331H102.245L103.688 31.2547ZM102.115 26.7265H98.5482L100.448 21.6682L102.115 26.7265Z" fill="#111111"/>
<path d="M114.152 18.69C111.868 18.69 112.155 19.4872 112.013 25.0677L111.938 28.3482C111.879 30.8395 111.573 31.8798 110 31.8798C108.615 31.8798 107.707 31.1424 107.707 29.9386C107.707 29.0657 108.191 28.4319 109.044 28.4319C109.343 28.4122 109.637 28.513 109.862 28.7124C110.088 28.9119 110.226 29.1936 110.247 29.4962C110.239 29.8435 110.133 30.1811 109.941 30.4688C109.829 30.6253 109.762 30.8102 109.748 31.0029C109.748 31.1663 109.886 31.4015 110.267 31.4015C111.49 31.4015 111.49 29.7313 111.533 28.3601L111.612 25.0796C111.706 21.0019 111.667 22.0383 111.667 20.7747C111.667 19.9775 111.592 18.694 109.98 18.694H109.516V18.2953H120V18.694H118.506V31.254H120V31.6526H114.829V31.254H116.323V18.69H114.152Z" fill="#111111"/>
<path fill-rule="evenodd" clip-rule="evenodd" d="M49.8918 0H0V31.6533H12.4975C10.4234 28.938 9.31478 25.5923 9.35151 22.1585C9.35671 19.6588 9.9474 17.196 11.075 14.9728C12.2025 12.7497 13.8348 10.8297 15.8374 9.37081C17.84 7.91192 20.1557 6.95586 22.594 6.58127C25.0323 6.20668 27.5235 6.42428 29.8626 7.21616C32.2018 8.00804 34.322 9.35157 36.0488 11.1362C37.7757 12.9208 39.0598 15.0956 39.7955 17.4815C40.5312 19.8674 40.6976 22.3963 40.2808 24.86C39.864 27.3238 38.876 29.6521 37.3982 31.6533H49.8918V0Z" fill="#111111"/>
<path fill-rule="evenodd" clip-rule="evenodd" d="M56.05 57H18.6558V19.0767C18.7002 19.0303 18.7581 18.9996 18.8209 18.989L18.9114 19.0767C21.5138 28.003 26.2735 36.1295 32.7589 42.7192C39.2442 49.3088 47.25 54.1531 56.05 56.8127C56.1365 56.8127 56.1365 56.8127 56.1365 56.8924C56.1365 56.9156 56.1274 56.9379 56.1112 56.9544C56.095 56.9708 56.073 56.9801 56.05 56.9801V57Z" fill="#888888"/>
</g>
</svg>
