<svg width="57" height="57" viewBox="0 0 57 57" fill="none" xmlns="http://www.w3.org/2000/svg">
<path fill-rule="evenodd" clip-rule="evenodd" d="M50.6591 0H0V31.6533H12.6897C10.5837 28.9381 9.45804 25.5923 9.49534 22.1585C9.50061 19.6588 10.1004 17.196 11.2453 14.9729C12.3902 12.7497 14.0475 10.8297 16.0809 9.37081C18.1143 7.91193 20.4657 6.95586 22.9415 6.58127C25.4173 6.20668 27.9468 6.42428 30.3219 7.21616C32.697 8.00804 34.8499 9.35158 36.6033 11.1362C38.3567 12.9209 39.6605 15.0956 40.4076 17.4815C41.1546 19.8674 41.3235 22.3963 40.9003 24.86C40.4771 27.3238 39.4739 29.6521 37.9734 31.6533H50.6591V0Z" fill="#111111"/>
<path fill-rule="evenodd" clip-rule="evenodd" d="M56.9122 57H18.9429V19.0766C18.988 19.0303 19.0467 18.9996 19.1106 18.989L19.2024 19.0766C21.8448 28.0029 26.6778 36.1295 33.2629 42.7191C39.848 49.3088 47.9769 54.1531 56.9122 56.8126C57.0001 56.8126 57.0001 56.8126 57.0001 56.8924C57.0001 56.9156 56.9908 56.9379 56.9743 56.9544C56.9579 56.9708 56.9355 56.98 56.9122 56.98V57Z" fill="#888888"/>
</svg>
