<svg width="94" height="90" viewBox="0 0 94 90" fill="none" xmlns="http://www.w3.org/2000/svg">
<g opacity="0.3" filter="url(#filter0_f)">
<ellipse cx="47" cy="67" rx="27" ry="3" fill="#333333"/>
</g>
<mask id="path-2-inside-1" fill="white">
<path fill-rule="evenodd" clip-rule="evenodd" d="M50.8147 63.775C66.6895 61.8893 79 48.3823 79 32C79 14.3269 64.6731 0 47 0C29.3269 0 15 14.3269 15 32C15 48.3823 27.3105 61.8893 43.1853 63.775L46.2285 67.4647C46.6285 67.9496 47.3715 67.9496 47.7715 67.4647L50.8147 63.775Z"/>
</mask>
<path fill-rule="evenodd" clip-rule="evenodd" d="M50.8147 63.775C66.6895 61.8893 79 48.3823 79 32C79 14.3269 64.6731 0 47 0C29.3269 0 15 14.3269 15 32C15 48.3823 27.3105 61.8893 43.1853 63.775L46.2285 67.4647C46.6285 67.9496 47.3715 67.9496 47.7715 67.4647L50.8147 63.775Z" fill="white"/>
<path d="M50.8147 63.775L50.6967 62.782L50.2984 62.8293L50.0432 63.1387L50.8147 63.775ZM43.1853 63.775L43.9568 63.1387L43.7016 62.8293L43.3033 62.782L43.1853 63.775ZM46.2285 67.4647L47 66.8284L46.2285 67.4647ZM47.7715 67.4647L47 66.8284H47L47.7715 67.4647ZM78 32C78 47.8696 66.0744 60.9553 50.6967 62.782L50.9326 64.768C67.3046 62.8233 80 48.8949 80 32H78ZM47 1C64.1208 1 78 14.8792 78 32H80C80 13.7746 65.2254 -1 47 -1V1ZM16 32C16 14.8792 29.8792 1 47 1V-1C28.7746 -1 14 13.7746 14 32H16ZM43.3033 62.782C27.9256 60.9553 16 47.8696 16 32H14C14 48.8949 26.6954 62.8233 43.0674 64.768L43.3033 62.782ZM47 66.8284L43.9568 63.1387L42.4139 64.4113L45.4571 68.101L47 66.8284ZM47 66.8284H47L45.4571 68.101C46.2571 69.0709 47.7429 69.0709 48.5429 68.101L47 66.8284ZM50.0432 63.1387L47 66.8284L48.5429 68.101L51.5861 64.4113L50.0432 63.1387Z" fill="black" fill-opacity="0.1" mask="url(#path-2-inside-1)"/>
<path fill-rule="evenodd" clip-rule="evenodd" d="M56.1136 20H35V33.3277H40.2888C39.411 32.1844 38.9419 30.7757 38.9574 29.3299C38.9596 28.2774 39.2096 27.2404 39.6868 26.3044C40.164 25.3683 40.8547 24.5599 41.7022 23.9456C42.5496 23.3313 43.5296 22.9288 44.5615 22.7711C45.5934 22.6133 46.6476 22.705 47.6375 23.0384C48.6274 23.3718 49.5246 23.9375 50.2554 24.6889C50.9862 25.4404 51.5296 26.356 51.841 27.3606C52.1523 28.3652 52.2227 29.43 52.0463 30.4674C51.87 31.5048 51.4519 32.4851 50.8264 33.3277H56.1136V20Z" fill="#111111"/>
<path fill-rule="evenodd" clip-rule="evenodd" d="M58.7196 44H42.8949V28.0323C42.9137 28.0128 42.9382 27.9998 42.9648 27.9954L43.003 28.0323C44.1043 31.7907 46.1186 35.2124 48.8631 37.987C51.6076 40.7616 54.9956 42.8013 58.7196 43.9211C58.7563 43.9211 58.7563 43.9211 58.7563 43.9547C58.7563 43.9645 58.7524 43.9739 58.7455 43.9808C58.7387 43.9877 58.7294 43.9916 58.7196 43.9916V44Z" fill="#888888"/>
<defs>
<filter id="filter0_f" x="0" y="44" width="94" height="46" filterUnits="userSpaceOnUse" color-interpolation-filters="sRGB">
<feFlood flood-opacity="0" result="BackgroundImageFix"/>
<feBlend mode="normal" in="SourceGraphic" in2="BackgroundImageFix" result="shape"/>
<feGaussianBlur stdDeviation="10" result="effect1_foregroundBlur"/>
</filter>
</defs>
</svg>
