<svg width="24" height="24" viewBox="0 0 24 24" fill="none" xmlns="http://www.w3.org/2000/svg">
    <path
            d="M17.8779 20.7429C8.86342 19.1345 4.76592 11.4903 3.42824 6.22323C3.13212 5.05725 4.06257 4 5.26556 4H7.55848C8.41934 4 9.18362 4.55086 9.45585 5.36754L10.1091 7.32736C10.3487 8.04603 10.1616 8.83837 9.62597 9.37403L9.47873 9.52127C9.1896 9.8104 9.10161 10.2491 9.28832 10.6129C10.3341 12.6506 11.9303 14.0255 12.9656 14.6913C13.2842 14.8961 13.6914 14.8564 13.9944 14.6292L14.6617 14.1287C15.1867 13.735 15.8715 13.6238 16.4941 13.8314L18.6325 14.5442C19.4491 14.8164 20 15.5807 20 16.4415V18.8622C20 20.0192 19.0169 20.9461 17.8779 20.7429Z" stroke="#ffffff" stroke-width="1.5"/>
</svg>
