<svg width="20" height="20" viewBox="0 0 20 20" fill="none" xmlns="http://www.w3.org/2000/svg">
<path d="M15.4526 12.7157C14.9556 12.7157 14.487 12.8186 14.0469 13.0245C13.6067 13.2304 13.2304 13.4966 12.918 13.8232L8.08306 10.9904C8.08306 10.8058 8.10081 10.639 8.13631 10.4899C8.17181 10.3408 8.18956 10.1739 8.18956 9.98935C8.18956 9.81896 8.16826 9.65566 8.12566 9.49947C8.08306 9.34327 8.04046 9.17288 7.99786 8.98829L12.8115 6.17678C13.1807 6.50337 13.5889 6.76606 14.0362 6.96486C14.4835 7.16365 14.9556 7.26305 15.4526 7.26305C16.4466 7.26305 17.3021 6.90806 18.0192 6.19808C18.7362 5.4881 19.0948 4.63614 19.0948 3.64217C19.0948 2.634 18.7362 1.77494 18.0192 1.06496C17.3021 0.354984 16.4466 0 15.4526 0C14.4586 0 13.6031 0.354984 12.886 1.06496C12.169 1.77494 11.8104 2.634 11.8104 3.64217C11.8104 3.81257 11.8317 3.97586 11.8743 4.13206C11.9169 4.28825 11.9595 4.45864 12.0021 4.64324L7.082 7.45474C6.76961 7.12815 6.39332 6.86546 5.95314 6.66667C5.51295 6.46787 5.04437 6.36848 4.54738 6.36848C3.55341 6.36848 2.6979 6.72346 1.98082 7.43344C1.26375 8.14342 0.905212 8.99538 0.905212 9.98935C0.905212 10.9975 1.26375 11.8566 1.98082 12.5666C2.6979 13.2765 3.55341 13.6315 4.54738 13.6315C5.04437 13.6315 5.51295 13.5286 5.95314 13.3227C6.39332 13.1168 6.76961 12.8577 7.082 12.5453L11.9169 15.3568C11.9169 15.5414 11.8992 15.7082 11.8637 15.8573C11.8282 16.0064 11.8104 16.1732 11.8104 16.3578C11.8104 17.3518 12.169 18.2073 12.886 18.9244C13.6031 19.6415 14.4586 20 15.4526 20C16.4466 20 17.3021 19.6415 18.0192 18.9244C18.7362 18.2073 19.0948 17.3518 19.0948 16.3578C19.0948 15.3639 18.7362 14.5083 18.0192 13.7913C17.3021 13.0742 16.4466 12.7157 15.4526 12.7157ZM15.4526 1.81044C15.9496 1.81044 16.3756 1.98793 16.7306 2.34292C17.0855 2.69791 17.263 3.13099 17.263 3.64217C17.263 4.13916 17.0855 4.56514 16.7306 4.92013C16.3756 5.27512 15.9496 5.45261 15.4526 5.45261C14.9556 5.45261 14.5296 5.27512 14.1746 4.92013C13.8197 4.56514 13.6422 4.13916 13.6422 3.64217C13.6422 3.13099 13.8197 2.69791 14.1746 2.34292C14.5296 1.98793 14.9556 1.81044 15.4526 1.81044ZM4.54738 11.8211C4.0504 11.8211 3.62442 11.6436 3.26943 11.2886C2.91444 10.9336 2.73695 10.5005 2.73695 9.98935C2.73695 9.49236 2.91444 9.06638 3.26943 8.7114C3.62442 8.35641 4.0504 8.17891 4.54738 8.17891C5.04437 8.17891 5.47035 8.35641 5.82534 8.7114C6.18033 9.06638 6.35782 9.49236 6.35782 9.98935C6.35782 10.5005 6.18033 10.9336 5.82534 11.2886C5.47035 11.6436 5.04437 11.8211 4.54738 11.8211ZM15.4526 18.1683C14.9556 18.1683 14.5296 17.9908 14.1746 17.6358C13.8197 17.2808 13.6422 16.8548 13.6422 16.3578C13.6422 16.1732 13.6635 16.0099 13.7061 15.8679C13.7487 15.7259 13.8126 15.584 13.8978 15.442C14.0398 15.1722 14.2563 14.9556 14.5474 14.7923C14.8385 14.629 15.1402 14.5474 15.4526 14.5474C15.9496 14.5474 16.3756 14.7249 16.7306 15.0799C17.0855 15.4349 17.263 15.8608 17.263 16.3578C17.263 16.8548 17.0855 17.2808 16.7306 17.6358C16.3756 17.9908 15.9496 18.1683 15.4526 18.1683Z" fill="#333333"/>
</svg>
