<svg width="36" height="36" viewBox="0 0 36 36" fill="none" xmlns="http://www.w3.org/2000/svg">
<rect opacity="0.2" x="0.5" y="0.5" width="35" height="35" rx="17.5" stroke="#333333"/>
<path fill-rule="evenodd" clip-rule="evenodd" d="M17.0234 23.2998H18.0009C18.0009 23.2998 18.2941 23.2509 18.4407 23.1043C18.5874 22.9577 18.5874 22.6644 18.5874 22.6644C18.5874 22.6644 18.5874 21.3937 19.1738 21.1982C19.7603 21.0027 20.5423 22.4689 21.3243 23.0065C21.9108 23.4464 22.3507 23.3486 22.3507 23.3486L24.5012 23.2998C24.5012 23.2998 25.6253 23.2509 25.0877 22.3223C25.0388 22.2734 24.7944 21.6869 23.4748 20.465C22.1063 19.1943 22.3018 19.4387 23.9147 17.2393C24.8922 15.9197 25.2832 15.1377 25.1854 14.7467C25.0877 14.4046 24.3546 14.5023 24.3546 14.5023H21.9108C21.9108 14.5023 21.7153 14.4535 21.6176 14.5512C21.471 14.6489 21.4221 14.7956 21.4221 14.7956C21.4221 14.7956 21.0311 15.8219 20.5423 16.7017C19.4671 18.5101 19.0272 18.6078 18.8806 18.5101C18.4896 18.2657 18.5874 17.4348 18.5874 16.8972C18.5874 15.1377 18.8806 14.4046 18.0497 14.2091C17.8054 14.1602 17.6099 14.1113 16.9256 14.1113C16.0459 14.1113 15.3127 14.1113 14.9217 14.3068C14.6285 14.4535 14.433 14.7467 14.5796 14.7467C14.7262 14.7467 15.1172 14.8444 15.3127 15.0888C15.5082 15.5287 15.5082 16.2618 15.5082 16.2618C15.5082 16.2618 15.6549 18.3634 15.1661 18.6078C14.824 18.8033 14.3841 18.4123 13.4066 16.7506C12.9179 15.9197 12.5269 14.9422 12.5269 14.9422C12.5269 14.9422 12.478 14.7467 12.3314 14.649C12.1848 14.5512 11.9404 14.5023 11.9404 14.5023H9.64328C9.64328 14.5023 9.30115 14.5023 9.15453 14.649C9.05678 14.7956 9.15453 15.0399 9.15453 15.0399C9.15453 15.0399 10.9629 19.2432 13.0156 21.3937C14.9217 23.4464 17.0234 23.2998 17.0234 23.2998Z" fill="#333333"/>
</svg>
