<svg width="36" height="36" viewBox="0 0 36 36" fill="none" xmlns="http://www.w3.org/2000/svg">
<rect opacity="0.2" x="0.5" y="0.5" width="35" height="35" rx="17.5" stroke="#333333"/>
<path d="M25.7778 13.9455C25.2057 14.1923 24.5832 14.3699 23.942 14.439C24.6077 14.0435 25.1063 13.4187 25.3441 12.6818C24.7194 13.0534 24.035 13.314 23.3213 13.452C23.0231 13.1331 22.6623 12.8791 22.2616 12.7057C21.8608 12.5323 21.4287 12.4434 20.992 12.4443C19.2254 12.4443 17.8047 13.8763 17.8047 15.6336C17.8047 15.8804 17.8346 16.1271 17.8832 16.3645C15.2379 16.2262 12.8787 14.9625 11.3102 13.0276C11.0245 13.5157 10.8747 14.0715 10.8765 14.6372C10.8765 15.7439 11.4392 16.7197 12.2973 17.2937C11.7916 17.2737 11.2978 17.1347 10.856 16.888V16.9272C10.856 18.477 11.9515 19.7613 13.4115 20.0567C13.1373 20.1279 12.8553 20.1643 12.5721 20.1651C12.3646 20.1651 12.1683 20.1445 11.9701 20.1165C12.3739 21.3802 13.5498 22.2981 14.95 22.328C13.8545 23.1861 12.4824 23.6909 10.9924 23.6909C10.7251 23.6909 10.4783 23.6815 10.2222 23.6516C11.6355 24.5583 13.3124 25.0817 15.1183 25.0817C20.9808 25.0817 24.1888 20.2249 24.1888 16.0094C24.1888 15.871 24.1888 15.7327 24.1794 15.5943C24.8001 15.1401 25.3441 14.5774 25.7778 13.9455Z" fill="#333333"/>
</svg>
