<svg width="36" height="36" viewBox="0 0 36 36" fill="none" xmlns="http://www.w3.org/2000/svg">
<path d="M7.49268 8.90649H28.0976V28.126H7.49268V8.90649Z" fill="#F7F7F7"/>
<path d="M18 0C15.5122 0 13.1768 0.469985 10.9939 1.40997C8.81096 2.34995 6.90854 3.63173 5.28658 5.25534C3.66463 6.87895 2.37805 8.78331 1.42683 10.9685C0.475605 13.1536 0 15.4913 0 17.9817C0 20.472 0.475605 22.8098 1.42683 24.9949C2.37805 27.1801 3.66463 29.0844 5.28658 30.708C6.90854 32.3316 8.81096 33.6195 10.9939 34.5717C13.1768 35.5239 15.5122 36 18 36C20.4878 36 22.8232 35.5239 25.0061 34.5717C27.189 33.6195 29.0915 32.3316 30.7134 30.708C32.3354 29.0844 33.6219 27.1801 34.5732 24.9949C35.5244 22.8098 36 20.472 36 17.9817C36 15.4913 35.5244 13.1536 34.5732 10.9685C33.6219 8.78331 32.3354 6.87895 30.7134 5.25534C29.0915 3.63173 27.189 2.34995 25.0061 1.40997C22.8232 0.469985 20.4878 0 18 0ZM25.3171 14.7223C25.3171 14.7955 25.3171 14.8749 25.3171 14.9603C25.3171 15.0458 25.3171 15.1251 25.3171 15.1984C25.3171 16.3703 25.0976 17.5544 24.6585 18.7508C24.2195 19.9471 23.5732 21.0275 22.7195 21.9919C21.8658 22.9563 20.8171 23.7436 19.5732 24.354C18.3293 24.9644 16.8903 25.2696 15.2561 25.2696C14.2561 25.2696 13.2988 25.1292 12.3841 24.8484C11.4695 24.5676 10.6098 24.1831 9.80488 23.6948C9.95122 23.6948 10.0976 23.7009 10.2439 23.7131C10.3902 23.7253 10.5366 23.7314 10.6829 23.7314C11.5122 23.7314 12.2988 23.5972 13.0427 23.3286C13.7866 23.06 14.4634 22.6938 15.0732 22.2299C14.2927 22.2055 13.6037 21.9613 13.0061 21.4975C12.4085 21.0336 11.9878 20.4476 11.7439 19.7396C11.8659 19.764 11.9817 19.7823 12.0915 19.7945C12.2012 19.8067 12.3049 19.8128 12.4024 19.8128C12.5732 19.8128 12.7378 19.8006 12.8963 19.7762C13.0549 19.7518 13.2073 19.7274 13.3537 19.7029C12.5488 19.532 11.872 19.1231 11.3232 18.4761C10.7744 17.8291 10.5 17.0783 10.5 16.2238V16.1872C10.7439 16.3093 11 16.4069 11.2683 16.4802C11.5366 16.5534 11.8171 16.6022 12.1098 16.6267C11.6463 16.3093 11.2683 15.8881 10.9756 15.3632C10.6829 14.8382 10.5366 14.2706 10.5366 13.6602C10.5366 13.3428 10.5793 13.0315 10.6646 12.7263C10.75 12.4212 10.8659 12.1343 11.0122 11.8657C11.8902 12.94 12.9573 13.8128 14.2134 14.4842C15.4695 15.1556 16.8415 15.528 18.3293 15.6012C18.2805 15.4547 18.25 15.3143 18.2378 15.1801C18.2256 15.0458 18.2195 14.9176 18.2195 14.7955C18.2195 13.8189 18.5671 12.9827 19.2622 12.2869C19.9573 11.591 20.7927 11.2431 21.7683 11.2431C22.2805 11.2431 22.7561 11.3408 23.1951 11.5361C23.6341 11.7314 24.0244 12 24.3659 12.3418C24.7561 12.2686 25.1402 12.1587 25.5183 12.0122C25.8963 11.8657 26.2561 11.6948 26.5976 11.4995C26.4756 11.9145 26.2805 12.2869 26.0122 12.6165C25.7439 12.9461 25.4268 13.233 25.061 13.4771C25.4024 13.4283 25.7439 13.355 26.0854 13.2574C26.4268 13.1597 26.7561 13.0376 27.0732 12.8911C26.8537 13.2574 26.5915 13.5931 26.2866 13.8983C25.9817 14.2035 25.6585 14.4781 25.3171 14.7223Z" fill="#4BA0EE"/>
</svg>
