<svg width="36" height="36" viewBox="0 0 36 36" fill="none" xmlns="http://www.w3.org/2000/svg">
<path d="M7.49268 7.50024H28.0976V28.1261H7.49268V7.50024Z" fill="#F7F7F7"/>
<path d="M21 17.6887L16.7927 15.7111C16.622 15.6134 16.4695 15.6073 16.3354 15.6928C16.2012 15.7782 16.1341 15.9308 16.1341 16.1506V19.8494C16.1341 20.0448 16.2012 20.1851 16.3354 20.2706C16.4695 20.3561 16.622 20.3499 16.7927 20.2523L21 18.3113C21.1951 18.2136 21.2927 18.1038 21.2927 17.9817C21.2927 17.8596 21.1951 17.762 21 17.6887ZM18 0C15.5122 0 13.1768 0.469985 10.9939 1.40997C8.81096 2.34995 6.90854 3.63173 5.28658 5.25534C3.66463 6.87895 2.37805 8.78331 1.42683 10.9685C0.475605 13.1536 0 15.4913 0 17.9817C0 20.472 0.475605 22.8098 1.42683 24.9949C2.37805 27.1801 3.66463 29.0844 5.28658 30.708C6.90854 32.3316 8.81096 33.6195 10.9939 34.5717C13.1768 35.5239 15.5122 36 18 36C20.4878 36 22.8232 35.5239 25.0061 34.5717C27.189 33.6195 29.0915 32.3316 30.7134 30.708C32.3354 29.0844 33.6219 27.1801 34.5732 24.9949C35.5244 22.8098 36 20.472 36 17.9817C36 15.4913 35.5244 13.1536 34.5732 10.9685C33.6219 8.78331 32.3354 6.87895 30.7134 5.25534C29.0915 3.63173 27.189 2.34995 25.0061 1.40997C22.8232 0.469985 20.4878 0 18 0ZM18 25.3062C13.3902 25.3062 10.6768 24.8973 9.85976 24.0793C9.04268 23.2614 8.63415 21.2289 8.63415 17.9817C8.63415 14.7345 9.04268 12.708 9.85976 11.9023C10.6768 11.0966 13.3902 10.6938 18 10.6938C22.6098 10.6938 25.3232 11.0966 26.1402 11.9023C26.9573 12.708 27.3659 14.7345 27.3659 17.9817C27.3659 21.2289 26.9573 23.2614 26.1402 24.0793C25.3232 24.8973 22.6098 25.3062 18 25.3062Z" fill="#AF2222"/>
</svg>
