<svg width="36" height="36" viewBox="0 0 36 36" fill="none" xmlns="http://www.w3.org/2000/svg">
<path d="M8.4292 7.50024H29.0341V28.1261H8.4292V7.50024Z" fill="#F7F7F7"/>
<path d="M18 0C15.5122 0 13.1768 0.469985 10.9939 1.40997C8.81096 2.34995 6.90854 3.63173 5.28658 5.25534C3.66463 6.87895 2.37805 8.78331 1.42683 10.9685C0.475605 13.1536 0 15.4913 0 17.9817C0 20.472 0.475605 22.8098 1.42683 24.9949C2.37805 27.1801 3.66463 29.0844 5.28658 30.708C6.90854 32.3316 8.81096 33.6195 10.9939 34.5717C13.1768 35.5239 15.5122 36 18 36C20.4878 36 22.8232 35.5239 25.0061 34.5717C27.189 33.6195 29.0915 32.3316 30.7134 30.708C32.3354 29.0844 33.6219 27.1801 34.5732 24.9949C35.5244 22.8098 36 20.472 36 17.9817C36 15.4913 35.5244 13.1536 34.5732 10.9685C33.6219 8.78331 32.3354 6.87895 30.7134 5.25534C29.0915 3.63173 27.189 2.34995 25.0061 1.40997C22.8232 0.469985 20.4878 0 18 0ZM22.2439 12.4151H19.5732C19.4024 12.4151 19.2439 12.5127 19.0976 12.708C18.9512 12.9034 18.878 13.1353 18.878 13.4039V15.3815H22.2439L21.7683 18.1648H18.878V26.5148H15.6951V18.1648H12.8049V15.3815H15.6951V13.7335C15.6951 12.5615 16.061 11.5544 16.7927 10.7121C17.5244 9.86978 18.4512 9.44863 19.5732 9.44863H22.2439V12.4151Z" fill="#415A94"/>
</svg>
