<svg width="50" height="50" viewBox="0 0 50 50" fill="none" xmlns="http://www.w3.org/2000/svg">
<rect opacity="0.1" x="0.5" y="0.5" width="49" height="49" rx="24.5" stroke="#333333"/>
<path d="M35.8022 19.3687C35.0077 19.7114 34.1431 19.9581 33.2525 20.0542C34.1771 19.5048 34.8695 18.637 35.1998 17.6135C34.3322 18.1297 33.3817 18.4916 32.3905 18.6832C31.9762 18.2404 31.4752 17.8875 30.9186 17.6468C30.362 17.406 29.7618 17.2824 29.1553 17.2838C26.7017 17.2838 24.7284 19.2726 24.7284 21.7133C24.7284 22.056 24.7699 22.3987 24.8375 22.7285C21.1635 22.5364 17.8868 20.7812 15.7084 18.0939C15.3115 18.7718 15.1035 19.5438 15.106 20.3294C15.106 21.8665 15.8875 23.2218 17.0793 24.0189C16.377 23.9913 15.6911 23.7982 15.0775 23.4555V23.51C15.0775 25.6625 16.599 27.4462 18.6268 27.8564C18.246 27.9553 17.8544 28.0059 17.461 28.007C17.1728 28.007 16.9002 27.9785 16.6249 27.9395C17.1858 29.6947 18.8189 30.9696 20.7636 31.0111C19.2421 32.2029 17.3364 32.9039 15.267 32.9039C14.8957 32.9039 14.553 32.8909 14.1973 32.8494C16.1602 34.1087 18.4892 34.8357 20.9973 34.8357C29.1397 34.8357 33.5952 28.0901 33.5952 22.2352C33.5952 22.043 33.5952 21.8509 33.5822 21.6588C34.4443 21.0278 35.1998 20.2463 35.8022 19.3687Z" fill="#333333"/>
</svg>
