<svg width="50" height="50" viewBox="0 0 50 50" fill="none" xmlns="http://www.w3.org/2000/svg">
<rect opacity="0.1" x="0.5" y="0.5" width="49" height="49" rx="24.5" stroke="#333333"/>
<path fill-rule="evenodd" clip-rule="evenodd" d="M23.6436 32.3608H25.0012C25.0012 32.3608 25.4085 32.2929 25.6121 32.0893C25.8158 31.8856 25.8158 31.4783 25.8158 31.4783C25.8158 31.4783 25.8158 29.7134 26.6303 29.4419C27.4449 29.1704 28.531 31.2068 29.6171 31.9535C30.4317 32.5644 31.0426 32.4287 31.0426 32.4287L34.0294 32.3608C34.0294 32.3608 35.5907 32.2929 34.844 31.0032C34.7761 30.9353 34.4367 30.1207 32.6039 28.4237C30.7032 26.6587 30.9748 26.9981 33.2149 23.9435C34.5725 22.1107 35.1155 21.0246 34.9798 20.4815C34.844 20.0063 33.8258 20.1421 33.8258 20.1421H30.4317C30.4317 20.1421 30.1602 20.0742 30.0244 20.21C29.8208 20.3458 29.7529 20.5494 29.7529 20.5494C29.7529 20.5494 29.2098 21.9749 28.531 23.1968C27.0376 25.7084 26.4267 25.8442 26.2231 25.7084C25.68 25.369 25.8158 24.215 25.8158 23.4683C25.8158 21.0246 26.2231 20.0063 25.0691 19.7348C24.7297 19.6669 24.4581 19.5991 23.5078 19.5991C22.2859 19.5991 21.2677 19.5991 20.7247 19.8706C20.3174 20.0742 20.0458 20.4815 20.2495 20.4815C20.4531 20.4815 20.9962 20.6173 21.2677 20.9567C21.5392 21.5676 21.5392 22.5858 21.5392 22.5858C21.5392 22.5858 21.7429 25.5048 21.0641 25.8442C20.5889 26.1157 19.978 25.5726 18.6203 23.2647C17.9415 22.1107 17.3985 20.753 17.3985 20.753C17.3985 20.753 17.3306 20.4815 17.1269 20.3458C16.9233 20.21 16.5839 20.1421 16.5839 20.1421H13.3935C13.3935 20.1421 12.9183 20.1421 12.7146 20.3458C12.5789 20.5494 12.7146 20.8888 12.7146 20.8888C12.7146 20.8888 15.2263 26.7266 18.0773 29.7134C20.7247 32.5644 23.6436 32.3608 23.6436 32.3608Z" fill="#333333"/>
</svg>
