<svg width="30" height="30" viewBox="0 0 30 30" fill="none" xmlns="http://www.w3.org/2000/svg">
<g filter="url(#filter0_d)">
<circle cx="15" cy="15" r="10.4" stroke="#F7F7F7" stroke-width="1.2"/>
<path d="M5.38696 15L24.9001 15" stroke="#F7F7F7" stroke-width="1.2" stroke-linecap="round"/>
<path d="M22.7002 8.3999C22.7002 8.3999 18.6468 10.5999 15.0002 10.5999C11.3535 10.5999 7.30017 8.3999 7.30017 8.3999" stroke="#F7F7F7" stroke-width="1.2"/>
<path d="M22.7002 21.6001C22.7002 21.6001 18.6468 19.4001 15.0002 19.4001C11.3535 19.4001 7.30017 21.6001 7.30017 21.6001" stroke="#F7F7F7" stroke-width="1.2"/>
<path d="M15 24.8193L15 5.10004" stroke="#F7F7F7" stroke-width="1.2" stroke-linecap="round"/>
<path d="M15.55 5.10019C15.55 5.10019 20.5001 8.40019 20.5001 15.0002C20.5001 22.7002 15.55 25.4502 15.55 25.4502" stroke="#F7F7F7" stroke-width="1.2"/>
<path d="M14.45 25.4501C14.45 25.4501 9.49995 22.1501 9.49995 15.5501C9.49995 7.8501 14.45 5.1001 14.45 5.1001" stroke="#F7F7F7" stroke-width="1.2"/>
</g>
<defs>
<filter id="filter0_d" x="0" y="0" width="30" height="30" filterUnits="userSpaceOnUse" color-interpolation-filters="sRGB">
<feFlood flood-opacity="0" result="BackgroundImageFix"/>
<feColorMatrix in="SourceAlpha" type="matrix" values="0 0 0 0 0 0 0 0 0 0 0 0 0 0 0 0 0 0 127 0"/>
<feOffset/>
<feGaussianBlur stdDeviation="2"/>
<feColorMatrix type="matrix" values="0 0 0 0 0 0 0 0 0 0 0 0 0 0 0 0 0 0 0.12 0"/>
<feBlend mode="normal" in2="BackgroundImageFix" result="effect1_dropShadow"/>
<feBlend mode="normal" in="SourceGraphic" in2="effect1_dropShadow" result="shape"/>
</filter>
</defs>
</svg>
