<svg width="93" height="44" viewBox="0 0 93 44" fill="none" xmlns="http://www.w3.org/2000/svg">
<path d="M48.5346 24.1262H47.3765V24.4339H51.3781V24.1262H50.22V20.3508H51.6951C54.5812 20.3508 55.5626 18.96 55.5626 17.2738C55.5626 14.4861 52.8989 14.1384 51.7103 14.1384H47.3765V14.4461H48.5346V24.1262ZM50.22 20.0493V14.4277H51.2592C53.606 14.4277 53.6669 16.0492 53.6669 16.7261V17.8769C53.6669 18.8523 53.2159 20.0493 51.2592 20.0493H50.22Z" fill="#F7F7F7"/>
<path d="M63.4321 16.0337C63.5441 15.7299 63.6149 15.4121 63.6424 15.0891C63.6498 14.9985 63.6371 14.9073 63.6054 14.8222C63.5737 14.7371 63.5237 14.6602 63.459 14.5969C63.3943 14.5337 63.3165 14.4857 63.2312 14.4564C63.146 14.4271 63.0553 14.4173 62.9658 14.4276H62.7586V14.1199H65.3156V14.4276C65.0119 14.434 64.7181 14.5385 64.4774 14.7256C64.2366 14.9128 64.0615 15.1728 63.9777 15.4676L61.8687 21.2307C60.7715 24.2215 59.7627 24.6154 59.1257 24.6154C57.9981 24.6154 57.0624 23.7969 57.0624 22.7877C57.0624 22.1292 57.4068 21.5569 58.0529 21.5569C58.1775 21.5455 58.303 21.56 58.4217 21.5995C58.5405 21.639 58.65 21.7027 58.7434 21.7866C58.8368 21.8705 58.9121 21.9729 58.9648 22.0874C59.0175 22.2019 59.0463 22.3261 59.0495 22.4523C59.0431 22.7012 58.9403 22.9376 58.7631 23.1107C58.6015 23.3169 58.2084 23.523 58.2084 23.7261C58.2084 24.0123 58.5711 24.3415 59.2476 24.3415C59.9242 24.3415 60.3174 23.6154 60.6465 23.003L56.779 14.4276H55.7397V14.1199H59.8816V14.4276H58.6168L61.5822 20.9784L63.4321 16.0337Z" fill="#F7F7F7"/>
<path d="M72.4988 13.957V17.3109H72.194C71.999 15.4647 71.3834 14.2555 69.6218 14.2555C68.6252 14.2555 67.0038 14.9017 67.0038 18.2555V20.8094C67.0038 23.5787 68.5277 24.3048 69.5852 24.3048C70.719 24.3048 71.9533 23.5141 72.4043 21.0002H72.767L72.6421 24.431H72.255C72.255 24.2894 72.1788 23.8156 71.7765 23.8156C71.4861 23.8615 71.2116 23.98 70.978 24.1602C70.4389 24.4413 69.8443 24.5969 69.2378 24.6156C66.6594 24.6156 65.1082 22.0956 65.1082 18.9479C65.1082 16.0494 67.141 13.9601 69.5304 13.957C70.7037 13.957 70.9354 14.4647 71.5327 14.4463C71.7034 14.4463 71.9838 14.4463 72.1422 13.957H72.4988Z" fill="#F7F7F7"/>
<path d="M80.3583 24.1264H79.0204V24.4341H83.1622V24.1264H82.1351L78.7034 14.1294H78.4322L75.1071 23.0526C74.9425 23.4926 74.5372 24.0772 73.8728 24.1233V24.431H76.4329V24.1233C75.6039 24.0772 75.4698 23.8156 75.4698 23.3849C75.494 23.0225 75.5904 22.6687 75.7532 22.3449L76.2957 20.9449H79.2398L80.3583 24.1264ZM79.1392 20.631H76.375L77.847 16.7263L79.1392 20.631Z" fill="#F7F7F7"/>
<path d="M88.4681 14.4274C86.6974 14.4274 86.9198 15.0428 86.8101 19.3505L86.7522 21.8829C86.7065 23.806 86.4688 24.6091 85.2497 24.6091C84.1769 24.6091 83.4729 24.0398 83.4729 23.1106C83.4729 22.4367 83.8478 21.9475 84.5091 21.9475C84.7405 21.9323 84.9685 22.0101 85.1432 22.1641C85.318 22.318 85.4253 22.5355 85.4417 22.769C85.4355 23.0372 85.353 23.2978 85.204 23.5198C85.1174 23.6407 85.0657 23.7834 85.0546 23.9321C85.0546 24.0583 85.1613 24.2398 85.4569 24.2398C86.4048 24.2398 86.4048 22.9506 86.4383 21.8921L86.4993 19.3598C86.5724 16.2121 86.5419 17.0121 86.5419 16.0367C86.5419 15.4213 86.484 14.4305 85.2345 14.4305H84.8748V14.1228H93V14.4305H91.8419V24.126H93V24.4337H88.9923V24.126H90.1504V14.4274H88.4681Z" fill="#F7F7F7"/>
<path fill-rule="evenodd" clip-rule="evenodd" d="M38.6661 0H0V24.4341H9.68558C8.0781 22.3381 7.21895 19.7555 7.24742 17.1048C7.25145 15.1752 7.70923 13.2741 8.5831 11.558C9.45697 9.84187 10.7219 8.35976 12.274 7.23361C13.826 6.10745 15.6206 5.36943 17.5103 5.08028C19.4 4.79112 21.3307 4.95909 23.1435 5.57037C24.9564 6.18165 26.5995 7.21876 27.9378 8.59637C29.2762 9.97399 30.2713 11.6527 30.8415 13.4945C31.4117 15.3362 31.5406 17.2883 31.2176 19.1902C30.8946 21.0921 30.1289 22.8893 28.9836 24.4341H38.6661V0V0Z" fill="#F7F7F7"/>
<path fill-rule="evenodd" clip-rule="evenodd" d="M43.4388 44H14.4583V14.7259C14.4927 14.6901 14.5375 14.6664 14.5863 14.6582L14.6564 14.7259C16.6732 21.6164 20.362 27.8895 25.3882 32.9762C30.4143 38.063 36.6188 41.8025 43.4388 43.8554C43.5058 43.8554 43.5058 43.8554 43.5058 43.917C43.5058 43.9349 43.4988 43.9521 43.4862 43.9648C43.4736 43.9775 43.4566 43.9847 43.4388 43.9847V44Z" fill="#F7F7F7"/>
</svg>
