<svg width="36" height="36" viewBox="0 0 36 36" fill="none" xmlns="http://www.w3.org/2000/svg">
<path d="M29.3004 31H11.0754V4H23.2254L29.3004 10V31Z" fill="white"/>
<path d="M23.2254 4H11.0754V31H29.3004V10M23.2254 4V10H29.3004M23.2254 4L29.3004 10" stroke="#333333" stroke-width="1.5" stroke-linecap="round" stroke-linejoin="round"/>
<mask id="path-3-inside-1" fill="white">
<rect x="5" y="13" width="18.225" height="12" rx="1"/>
</mask>
<rect x="5" y="13" width="18.225" height="12" rx="1" fill="white" stroke="#333333" stroke-width="3" stroke-linecap="round" stroke-linejoin="round" mask="url(#path-3-inside-1)"/>
<path d="M10.3922 16.7998C10.7962 16.7998 11.1362 16.9358 11.4122 17.2078C11.6882 17.4798 11.8262 17.8138 11.8262 18.2098C11.8262 18.6058 11.6882 18.9398 11.4122 19.2118C11.1362 19.4838 10.7962 19.6198 10.3922 19.6198H9.65417V20.9998H8.82617V16.7998H10.3922ZM10.3922 18.8458C10.5682 18.8458 10.7142 18.7858 10.8302 18.6658C10.9462 18.5418 11.0042 18.3898 11.0042 18.2098C11.0042 18.0258 10.9462 17.8738 10.8302 17.7538C10.7142 17.6338 10.5682 17.5738 10.3922 17.5738H9.65417V18.8458H10.3922Z" fill="#333333"/>
<path d="M14.1332 16.7998C14.7092 16.7998 15.1892 17.0018 15.5732 17.4058C15.9612 17.8098 16.1552 18.3078 16.1552 18.8998C16.1552 19.4918 15.9612 19.9898 15.5732 20.3938C15.1892 20.7978 14.7092 20.9998 14.1332 20.9998H12.4652V16.7998H14.1332ZM14.1332 20.2078C14.4972 20.2078 14.7932 20.0878 15.0212 19.8478C15.2492 19.6038 15.3632 19.2878 15.3632 18.8998C15.3632 18.5118 15.2492 18.1978 15.0212 17.9578C14.7932 17.7138 14.4972 17.5918 14.1332 17.5918H13.2932V20.2078H14.1332Z" fill="#333333"/>
<path d="M19.3506 17.5918H17.6706V18.5878H19.3026V19.3798H17.6706V20.9998H16.8426V16.7998H19.3506V17.5918Z" fill="#333333"/>
</svg>
