<svg width="36" height="36" viewBox="0 0 36 36" fill="none" xmlns="http://www.w3.org/2000/svg">
<path d="M29.3004 31H11.0754V4H23.2254L29.3004 10V31Z" fill="white"/>
<path d="M23.2254 4H11.0754V31H29.3004V10M23.2254 4V10H29.3004M23.2254 4L29.3004 10" stroke="#333333" stroke-width="1.5" stroke-linecap="round" stroke-linejoin="round"/>
<mask id="path-3-inside-1" fill="white">
<rect x="5" y="13" width="18.225" height="12" rx="1"/>
</mask>
<rect x="5" y="13" width="18.225" height="12" rx="1" fill="white" stroke="#333333" stroke-width="3" stroke-linecap="round" stroke-linejoin="round" mask="url(#path-3-inside-1)"/>
<path d="M12.4958 20.9998H11.5538L10.7378 19.6318L9.92184 20.9998H8.98584L10.2698 18.8458L9.05184 16.7998H9.98784L10.7378 18.0598L11.4878 16.7998H12.4238L11.2058 18.8398L12.4958 20.9998Z" fill="#333333"/>
<path d="M13.8879 20.2078H15.4899V20.9998H13.0599V16.7998H13.8879V20.2078Z" fill="#333333"/>
<path d="M17.4182 21.0838C17.0022 21.0838 16.6522 20.9918 16.3682 20.8078C16.0842 20.6198 15.8842 20.3658 15.7682 20.0458L16.4762 19.6318C16.6402 20.0598 16.9622 20.2738 17.4422 20.2738C17.6742 20.2738 17.8442 20.2318 17.9522 20.1478C18.0602 20.0638 18.1142 19.9578 18.1142 19.8298C18.1142 19.6818 18.0482 19.5678 17.9162 19.4878C17.7842 19.4038 17.5482 19.3138 17.2082 19.2178C17.0202 19.1618 16.8602 19.1058 16.7282 19.0498C16.6002 18.9938 16.4702 18.9198 16.3382 18.8278C16.2102 18.7318 16.1122 18.6118 16.0442 18.4678C15.9762 18.3238 15.9422 18.1558 15.9422 17.9638C15.9422 17.5838 16.0762 17.2818 16.3442 17.0578C16.6162 16.8298 16.9422 16.7158 17.3222 16.7158C17.6622 16.7158 17.9602 16.7998 18.2162 16.9678C18.4762 17.1318 18.6782 17.3618 18.8222 17.6578L18.1262 18.0598C17.9582 17.6998 17.6902 17.5198 17.3222 17.5198C17.1502 17.5198 17.0142 17.5598 16.9142 17.6398C16.8182 17.7158 16.7702 17.8158 16.7702 17.9398C16.7702 18.0718 16.8242 18.1798 16.9322 18.2638C17.0442 18.3438 17.2562 18.4318 17.5682 18.5278C17.6962 18.5678 17.7922 18.5998 17.8562 18.6238C17.9242 18.6438 18.0142 18.6778 18.1262 18.7258C18.2422 18.7698 18.3302 18.8118 18.3902 18.8518C18.4542 18.8918 18.5262 18.9458 18.6062 19.0138C18.6862 19.0818 18.7462 19.1518 18.7862 19.2238C18.8302 19.2958 18.8662 19.3838 18.8942 19.4878C18.9262 19.5878 18.9422 19.6978 18.9422 19.8178C18.9422 20.2058 18.8002 20.5138 18.5162 20.7418C18.2362 20.9698 17.8702 21.0838 17.4182 21.0838Z" fill="#333333"/>
</svg>
