<svg width="64" height="64" fill="none" xmlns="http://www.w3.org/2000/svg"><circle cx="32.5" cy="31.5" r="21.5" stroke="#999" stroke-width="2"/><path d="M43.75 13.145c-.592.395-1.184 1.895 1.184 4.737.592.789 1.303 2.96-.592 5.328-2.368 2.961-4.145 6.514 2.369 10.658 1.579 0 3.79 1.54 0 7.698-.987 1.381-2.724 4.855-1.777 7.697m-7.697-39.079c.197 1.58-.474 4.974-4.737 5.921-5.329 1.184-7.105 2.369-8.29 5.921-.947 2.842-1.973 1.184-2.368 0-.395-1.184-1.54-3.079-2.96-1.184-1.777 2.369.592 3.553-.593 5.329-1.184 1.776 3.553 4.737 4.737 5.329 1.184.592 3.553-2.368 5.921 1.184 2.369 3.553 2.96 5.33 5.33 5.921 2.368.592 6.512 2.96 3.552 5.921-2.96 2.96-5.329 1.777-7.697 4.145-1.895 1.895-2.764 3.158-2.96 3.553m-5.33-2.369c.987-1.776 2.369-5.802 0-7.697-2.96-2.369-2.96-3.553-2.368-5.921.592-2.369 1.184-2.369-.592-3.553-1.777-1.184-6.514-3.552-7.106-5.92" stroke="#999" stroke-width="2"/></svg>