<svg width="64" height="64" fill="none" xmlns="http://www.w3.org/2000/svg"><path fill-rule="evenodd" clip-rule="evenodd" d="M51.212 17.727c-4.315-5.753-12.898-5.887-17.39-.272L32 19.733l-1.822-2.278c-4.492-5.615-13.075-5.481-17.39.272l-.449.599A16.001 16.001 0 0010.335 34h2.188a14.003 14.003 0 011.416-14.474l.45-.6c3.53-4.706 10.552-4.816 14.227-.222l2.603 3.254.781.976.781-.976 2.603-3.254c3.675-4.594 10.698-4.484 14.228.223l.45.599A14.003 14.003 0 0151.476 34h2.189a16.001 16.001 0 00-2.005-15.674l-.45-.6zM49.414 40h-2.828L32 54.586 17.414 40h-2.828l16.707 16.707.707.707.707-.707L49.414 40z" fill="#999"/><path d="M6 37.333h14.667l6-10 6 16 5.333-6h20.667" stroke="#999" stroke-width="2" stroke-linecap="round"/></svg>