<svg width="64" height="64" fill="none" xmlns="http://www.w3.org/2000/svg"><path d="M30 12h9c2.4 0 3.333 1 3.5 1.5l3.5 6 3-2-5 11L33 27l3.5-2-4.25-8.5L30 12zm0 0h-3c-1.6 0-3 1-3.5 1.5l-3 5 8 5 1.875-3.5M50.79 40.977l-4.5 7.795c-1.2 2.078-2.533 2.386-3.05 2.28l-6.946.032.232 3.598-7.026-9.83 6.8-8.777-.019 4.031 9.486.57 5.023.301zm0 0l1.5-2.598c.8-1.386.633-3.098.45-3.78L49.91 29.5l-8.33 4.428 2.094 3.374M14.5 44.205L10 36.41c-1.2-2.078-.8-3.386-.451-3.78l3.446-6.032L9.763 25l12.026-1.17 4.201 10.276-3.482-2.03-5.236 7.93-2.772 4.199zm0 0l1.5 2.598c.8 1.385 2.366 2.098 3.049 2.28l5.83.099.33-9.428-3.968.126" stroke="#999" stroke-width="2" stroke-linecap="round" stroke-linejoin="round"/></svg>