<svg width="64" height="64" fill="none" xmlns="http://www.w3.org/2000/svg"><path d="M43.54 40.216c6.392 0 10.46 5.811 10.46 9.298C54 52.303 50.9 53 49.351 53H14.487C13.323 52.806 11 51.838 11 49.514c0-6.044 6.198-8.717 10.46-9.298.968-2.324 4.416-6.973 10.459-6.973 6.043 0 10.266 4.649 11.622 6.973zm0 0c-1.162 0-3.95.233-5.81 1.162m-5.811-8.135V26.27m0-4.648c0-3.874 3.254-11.622 16.27-11.622 1.162 5.423-.465 16.27-16.27 16.27m0-4.648v4.648m0-4.648C31.532 17.748 27.735 10 15.649 10c0 14.876 10.847 17.045 16.27 16.27m0 0l10.46-10.46m-10.46 10.46l-10.46-10.46" stroke="#999" stroke-width="2" stroke-linecap="round" stroke-linejoin="round"/></svg>