<svg width="24" height="24" fill="none" xmlns="http://www.w3.org/2000/svg"><path d="M22 23H7V1h10l5 4.889V23z" fill="#fff"/><path d="M17 1H7v22h15V5.889M17 1v4.889h5M17 1l5 4.889" stroke="#3F91CD" stroke-width="1.5" stroke-linecap="round" stroke-linejoin="round"/><mask id="a" fill="#fff"><rect x="2" y="8" width="16.2" height="10.667" rx="1"/></mask><rect x="2" y="8" width="16.2" height="10.667" rx="1" fill="#fff" stroke="#3F91CD" stroke-width="3" stroke-linecap="round" stroke-linejoin="round" mask="url(#a)"/><path d="M5.038 15.333h.856v-1.297h.72c.931 0 1.473-.548 1.473-1.347 0-.795-.532-1.356-1.452-1.356H5.038v4zm.856-1.974v-1.334h.577c.495 0 .734.265.734.664 0 .396-.24.67-.73.67h-.581zm4.185 1.974c1.234 0 1.981-.754 1.981-2.004 0-1.246-.747-1.996-1.97-1.996H8.644v4h1.436zm-.58-.724v-2.551h.546c.76 0 1.161.383 1.161 1.271 0 .893-.401 1.28-1.163 1.28H9.5zm3.196.724h.856v-1.652h1.647v-.697h-1.647v-.953h1.825v-.698h-2.681v4z" fill="#3F91CD"/></svg>