<svg width="24" height="24" fill="none" xmlns="http://www.w3.org/2000/svg"><path d="M22 23H7V1h10l5 4.889V23z" fill="#fff"/><path d="M17 1H7v22h15V5.889M17 1v4.889h5M17 1l5 4.889" stroke="#3F91CD" stroke-width="1.5" stroke-linecap="round" stroke-linejoin="round"/><mask id="a" fill="#fff"><rect x="2" y="8" width="16.2" height="10.667" rx="1"/></mask><rect x="2" y="8" width="16.2" height="10.667" rx="1" fill="#fff" stroke="#3F91CD" stroke-width="3" stroke-linecap="round" stroke-linejoin="round" mask="url(#a)"/><path d="M7.436 14.316H9.07v.726H6.468v-.605l1.6-2.52h-1.56v-.725h2.53v.6l-1.6 2.524zm2.135-3.124h.76v3.85h-.76v-3.85zm2.907 0c.37 0 .682.125.935.374.253.25.38.555.38.918s-.127.67-.38.919a1.28 1.28 0 01-.935.374h-.676v1.265h-.76v-3.85h1.436zm0 1.875a.535.535 0 00.402-.165.589.589 0 00.16-.418.577.577 0 00-.16-.418.535.535 0 00-.402-.165h-.676v1.166h.676z" fill="#3F91CD"/></svg>