<svg width="36" height="36" fill="none" xmlns="http://www.w3.org/2000/svg"><path d="M29.3 31H11.075V4h12.15l6.075 6v21z" fill="#fff"/><path d="M23.225 4h-12.15v27H29.3V10m-6.075-6v6H29.3m-6.075-6l6.075 6" stroke="#333" stroke-width="1.5" stroke-linecap="round" stroke-linejoin="round"/><path d="M5 14a1 1 0 011-1h16.225a1 1 0 011 1v10a1 1 0 01-1 1H6a1 1 0 01-1-1V14z" fill="#333"/><path d="M21.75 14.5H6.5v9h15.25v-9z" fill="#fff"/><path d="M12.496 21h-.942l-.816-1.368L9.922 21h-.936l1.284-2.154L9.052 16.8h.936l.75 1.26.75-1.26h.936l-1.218 2.04 1.29 2.16zm1.392-.792h1.602V21h-2.43v-4.2h.828v3.408zm3.53.876c-.416 0-.766-.092-1.05-.276a1.508 1.508 0 01-.6-.762l.708-.414c.164.428.486.642.966.642.232 0 .402-.042.51-.126a.387.387 0 00.162-.318.379.379 0 00-.198-.342c-.132-.084-.368-.174-.708-.27a4.635 4.635 0 01-.48-.168 2.293 2.293 0 01-.39-.222.952.952 0 01-.294-.36 1.169 1.169 0 01-.102-.504c0-.38.134-.682.402-.906.272-.228.598-.342.978-.342.34 0 .638.084.894.252.26.164.462.394.606.69l-.696.402c-.168-.36-.436-.54-.804-.54a.635.635 0 00-.408.12.364.364 0 00-.144.3c0 .132.054.24.162.324.112.08.324.168.636.264.128.04.224.072.288.096.068.02.158.054.27.102a1.37 1.37 0 01.48.288c.08.068.14.138.18.21.044.072.08.16.108.264.032.1.048.21.048.33 0 .388-.142.696-.426.924-.28.228-.646.342-1.098.342z" fill="#333"/></svg>