<svg width="36" height="36" fill="none" xmlns="http://www.w3.org/2000/svg"><path d="M29.3 31H11.075V4h12.15l6.075 6v21z" fill="#fff"/><path d="M23.225 4h-12.15v27H29.3V10m-6.075-6v6H29.3m-6.075-6l6.075 6" stroke="#333" stroke-width="1.5" stroke-linecap="round" stroke-linejoin="round"/><path d="M5 14a1 1 0 011-1h16.225a1 1 0 011 1v10a1 1 0 01-1 1H6a1 1 0 01-1-1V14z" fill="#333"/><path d="M21.75 14.5H6.5v9h15.25v-9z" fill="#fff"/><path d="M9.267 16.8c.576 0 1.056.202 1.44.606.388.404.582.902.582 1.494s-.194 1.09-.582 1.494c-.384.404-.864.606-1.44.606H7.599v-4.2h1.668zm0 3.408c.364 0 .66-.12.888-.36.228-.244.342-.56.342-.948 0-.388-.114-.702-.342-.942-.228-.244-.524-.366-.888-.366h-.84v2.616h.84zm6.243.246c-.424.42-.94.63-1.548.63-.608 0-1.124-.21-1.548-.63a2.124 2.124 0 01-.63-1.554c0-.612.21-1.128.63-1.548.424-.424.94-.636 1.548-.636.608 0 1.124.212 1.548.636.424.42.636.936.636 1.548s-.212 1.13-.636 1.554zm-2.514-.564c.26.256.582.384.966.384s.706-.128.966-.384c.26-.26.39-.59.39-.99s-.13-.73-.39-.99-.582-.39-.966-.39-.706.13-.966.39-.39.59-.39.99.13.73.39.99zm5.824 1.194c-.632 0-1.154-.21-1.566-.63-.412-.42-.618-.938-.618-1.554 0-.62.206-1.138.618-1.554.412-.42.934-.63 1.566-.63.38 0 .73.09 1.05.27.324.176.576.416.756.72l-.714.414a1.09 1.09 0 00-.444-.438 1.299 1.299 0 00-.648-.162c-.408 0-.738.128-.99.384-.248.256-.372.588-.372.996 0 .404.124.734.372.99.252.256.582.384.99.384.24 0 .456-.052.648-.156a1.09 1.09 0 00.444-.438l.714.414c-.18.304-.43.546-.75.726-.32.176-.672.264-1.056.264z" fill="#333"/></svg>