<svg width="36" height="36" fill="none" xmlns="http://www.w3.org/2000/svg"><path d="M29.3 31H11.075V4h12.15l6.075 6v21z" fill="#fff"/><path d="M23.225 4h-12.15v27H29.3V10m-6.075-6v6H29.3m-6.075-6l6.075 6" stroke="#333" stroke-width="1.5" stroke-linecap="round" stroke-linejoin="round"/><path d="M5 14a1 1 0 011-1h16.225a1 1 0 011 1v10a1 1 0 01-1 1H6a1 1 0 01-1-1V14z" fill="#333"/><path d="M21.75 14.5H6.5v9h15.25v-9z" fill="#fff"/><path d="M10.392 16.8c.404 0 .744.136 1.02.408.276.272.414.606.414 1.002s-.138.73-.414 1.002a1.397 1.397 0 01-1.02.408h-.738V21h-.828v-4.2h1.566zm0 2.046c.176 0 .322-.06.438-.18a.643.643 0 00.174-.456.63.63 0 00-.174-.456.584.584 0 00-.438-.18h-.738v1.272h.738zm3.741-2.046c.576 0 1.056.202 1.44.606.388.404.582.902.582 1.494s-.194 1.09-.582 1.494c-.384.404-.864.606-1.44.606h-1.668v-4.2h1.668zm0 3.408c.364 0 .66-.12.888-.36.228-.244.342-.56.342-.948 0-.388-.114-.702-.342-.942-.228-.244-.524-.366-.888-.366h-.84v2.616h.84zm5.217-2.616h-1.68v.996h1.633v.792H17.67V21h-.828v-4.2h2.508v.792z" fill="#333"/></svg>