<svg width="24" height="24" fill="none" xmlns="http://www.w3.org/2000/svg"><path d="M22 23H7V1h10l5 4.889V23z" fill="#fff"/><path d="M17 1H7v22h15V5.889M17 1v4.889h5M17 1l5 4.889" stroke="#3F91CD" stroke-width="1.5" stroke-linecap="round" stroke-linejoin="round"/><mask id="a" fill="#fff"><rect x="2" y="8" width="16.2" height="10.667" rx="1"/></mask><rect x="2" y="8" width="16.2" height="10.667" rx="1" fill="#fff" stroke="#3F91CD" stroke-width="3" stroke-linecap="round" stroke-linejoin="round" mask="url(#a)"/><path d="M6.214 11.483c.37 0 .682.125.935.374.253.25.38.556.38.919s-.127.669-.38.918a1.28 1.28 0 01-.935.374h-.676v1.265h-.76v-3.85h1.436zm0 1.876a.535.535 0 00.402-.165.59.59 0 00.16-.418.577.577 0 00-.16-.418.535.535 0 00-.402-.165h-.676v1.166h.676zm4.036-1.876h.76v3.85h-.578l-1.65-2.354v2.354h-.76v-3.85H8.6l1.65 2.349v-2.349zm5.252 1.782v.297c0 .55-.176.996-.528 1.337-.352.34-.807.511-1.364.511-.594 0-1.087-.192-1.48-.577a1.931 1.931 0 01-.583-1.42c0-.56.193-1.035.578-1.424a1.96 1.96 0 011.44-.583c.36 0 .688.083.985.248.297.161.528.377.693.649l-.649.374a1.018 1.018 0 00-.418-.385 1.275 1.275 0 00-.616-.149 1.22 1.22 0 00-1.26 1.27c0 .364.12.665.358.903.242.234.561.352.957.352.294 0 .536-.064.726-.193a.98.98 0 00.396-.539h-1.166v-.67h1.93z" fill="#3F91CD"/></svg>