<svg width="57" height="57" fill="none" xmlns="http://www.w3.org/2000/svg"><path fill-rule="evenodd" clip-rule="evenodd" d="M50.66 0H0v31.653h12.69a15.222 15.222 0 01-3.195-9.494c.006-2.5.605-4.963 1.75-7.186a15.796 15.796 0 014.836-5.602 15.832 15.832 0 0114.24-2.155 15.82 15.82 0 016.282 3.92 15.763 15.763 0 011.37 20.517H50.66V0z" fill="#111"/><path fill-rule="evenodd" clip-rule="evenodd" d="M56.912 57h-37.97V19.077a.303.303 0 01.169-.088l.091.088a55.892 55.892 0 0014.06 23.642 56.029 56.029 0 0023.65 14.094c.088 0 .088 0 .088.08a.088.088 0 01-.088.087V57z" fill="#888"/></svg>