<svg width="120" height="57" fill="none" xmlns="http://www.w3.org/2000/svg"><g opacity=".9"><path d="M62.625 31.255h-1.494v.398h5.163v-.398H64.8v-4.891h1.903c3.724 0 4.99-1.802 4.99-3.986 0-3.612-3.436-4.062-4.97-4.062H61.13v.398h1.494v12.54zm2.175-5.282V18.69h1.34c3.029 0 3.108 2.101 3.108 2.978v1.49c0 1.264-.582 2.815-3.107 2.815H64.8zm17.048-5.202c.144-.394.236-.805.271-1.224a.806.806 0 00-.237-.637.784.784 0 00-.636-.22h-.267v-.398h3.3v.398a1.821 1.821 0 00-1.082.386c-.311.243-.537.58-.645.962l-2.722 7.465c-1.415 3.875-2.717 4.385-3.539 4.385-1.455 0-2.662-1.06-2.662-2.368 0-.853.444-1.594 1.278-1.594a1.164 1.164 0 01.89.298 1.197 1.197 0 01.396.862 1.24 1.24 0 01-.37.853c-.208.267-.715.534-.715.797 0 .37.467.797 1.34.797.874 0 1.38-.94 1.806-1.734l-4.99-11.109h-1.342v-.398h5.344v.398h-1.632l3.827 8.486 2.387-6.405zm11.699-2.691v4.346h-.393c-.252-2.392-1.046-3.958-3.32-3.958-1.285 0-3.377.837-3.377 5.181v3.309c0 3.587 1.966 4.528 3.33 4.528 1.463 0 3.056-1.024 3.638-4.281h.468l-.161 4.444h-.5c0-.183-.098-.797-.617-.797-.375.06-.73.213-1.03.447a5.187 5.187 0 01-2.246.59c-3.327 0-5.329-3.265-5.329-7.343 0-3.755 2.623-6.461 5.707-6.465 1.514 0 1.813.657 2.583.634.22 0 .582 0 .787-.634h.46zm10.141 13.175h-1.726v.398h5.344v-.398h-1.325l-4.428-12.951h-.35l-4.29 11.56c-.213.57-.736 1.327-1.593 1.387v.398h3.303v-.398c-1.07-.06-1.243-.399-1.243-.957.031-.47.156-.928.366-1.347l.7-1.814h3.799l1.443 4.122zm-1.573-4.528h-3.567l1.9-5.059 1.667 5.059zm12.037-8.037c-2.284 0-1.997.797-2.139 6.378l-.075 3.28c-.059 2.492-.365 3.532-1.938 3.532-1.385 0-2.293-.738-2.293-1.941 0-.873.484-1.507 1.337-1.507.299-.02.593.081.818.28.226.2.364.482.385.784a1.828 1.828 0 01-.306.973 1.049 1.049 0 00-.193.534c0 .163.138.398.519.398 1.223 0 1.223-1.67 1.266-3.04l.079-3.281c.094-4.078.055-3.042.055-4.305 0-.797-.075-2.081-1.687-2.081h-.464v-.399H120v.399h-1.494v12.56H120v.399h-5.171v-.399h1.494V18.69h-2.171z" fill="#111"/><path fill-rule="evenodd" clip-rule="evenodd" d="M49.892 0H0v31.653h12.498a15.375 15.375 0 01-3.146-9.494c.005-2.5.595-4.963 1.723-7.186a15.73 15.73 0 014.762-5.602 15.462 15.462 0 016.757-2.79 15.378 15.378 0 017.269.635 15.557 15.557 0 016.186 3.92 15.831 15.831 0 013.746 6.346c.736 2.385.903 4.914.486 7.378a15.901 15.901 0 01-2.883 6.793h12.494V0z" fill="#111"/><path fill-rule="evenodd" clip-rule="evenodd" d="M56.05 57H18.656V19.077a.297.297 0 01.165-.088l.09.088A56.072 56.072 0 0032.76 42.719a55.021 55.021 0 0023.29 14.094c.087 0 .087 0 .087.08 0 .023-.01.045-.026.061a.086.086 0 01-.061.026V57z" fill="#888"/></g></svg>