<svg width="94" height="90" fill="none" xmlns="http://www.w3.org/2000/svg"><g opacity=".3" filter="url(#filter0_f)"><ellipse cx="47" cy="67" rx="27" ry="3" fill="#333"/></g><mask id="a" fill="#fff"><path fill-rule="evenodd" clip-rule="evenodd" d="M50.815 63.775C66.689 61.889 79 48.382 79 32 79 14.327 64.673 0 47 0 29.327 0 15 14.327 15 32c0 16.382 12.31 29.89 28.185 31.775l3.043 3.69a1 1 0 001.544 0l3.043-3.69z"/></mask><path fill-rule="evenodd" clip-rule="evenodd" d="M50.815 63.775C66.689 61.889 79 48.382 79 32 79 14.327 64.673 0 47 0 29.327 0 15 14.327 15 32c0 16.382 12.31 29.89 28.185 31.775l3.043 3.69a1 1 0 001.544 0l3.043-3.69z" fill="#fff"/><path d="M50.815 63.775l-.118-.993-.399.047-.255.31.772.636zm-7.63 0l.772-.636-.255-.31-.399-.047-.118.993zm3.043 3.69l.772-.637-.772.637zm1.544 0L47 66.828l.772.637zM78 32c0 15.87-11.926 28.955-27.303 30.782l.236 1.986C67.305 62.823 80 48.895 80 32h-2zM47 1c17.12 0 31 13.88 31 31h2C80 13.775 65.225-1 47-1v2zM16 32C16 14.88 29.88 1 47 1v-2C28.775-1 14 13.775 14 32h2zm27.303 30.782C27.926 60.955 16 47.87 16 32h-2c0 16.895 12.695 30.823 29.067 32.768l.236-1.986zM47 66.828l-3.043-3.69-1.543 1.273 3.043 3.69L47 66.828zm0 0l-1.543 1.273a2 2 0 003.086 0L47 66.828zm3.043-3.69L47 66.829l1.543 1.273 3.043-3.69-1.543-1.272z" fill="#000" fill-opacity=".1" mask="url(#a)"/><path fill-rule="evenodd" clip-rule="evenodd" d="M56.114 20H35v13.328h5.289a6.452 6.452 0 01-1.332-3.998 6.693 6.693 0 01.73-3.026 6.632 6.632 0 012.015-2.358 6.538 6.538 0 015.935-.907c.99.333 1.888.898 2.618 1.65a6.66 6.66 0 011.586 2.672 6.703 6.703 0 01-1.015 5.967h5.288V20z" fill="#111"/><path fill-rule="evenodd" clip-rule="evenodd" d="M58.72 44H42.895V28.032a.126.126 0 01.07-.037l.038.037a23.584 23.584 0 005.86 9.955 23.306 23.306 0 009.857 5.934c.036 0 .036 0 .036.034a.037.037 0 01-.036.037V44z" fill="#888"/><defs><filter id="filter0_f" x="0" y="44" width="94" height="46" filterUnits="userSpaceOnUse" color-interpolation-filters="sRGB"><feFlood flood-opacity="0" result="BackgroundImageFix"/><feBlend in="SourceGraphic" in2="BackgroundImageFix" result="shape"/><feGaussianBlur stdDeviation="10" result="effect1_foregroundBlur"/></filter></defs></svg>