<svg width="20" height="20" fill="none" xmlns="http://www.w3.org/2000/svg"><path d="M15.453 12.716c-.497 0-.966.103-1.406.309a3.73 3.73 0 00-1.129.798L8.083 10.99c0-.184.018-.351.053-.5a2.165 2.165 0 00-.01-.99 13.42 13.42 0 01-.128-.512l4.814-2.811c.369.326.777.59 1.224.788.447.199.92.298 1.417.298.994 0 1.85-.355 2.566-1.065.717-.71 1.076-1.562 1.076-2.556a3.493 3.493 0 00-1.076-2.577C17.302.355 16.447 0 15.453 0c-.994 0-1.85.355-2.567 1.065a3.493 3.493 0 00-1.076 2.577c0 .17.022.334.064.49.043.156.085.327.128.511l-4.92 2.812a3.583 3.583 0 00-1.129-.788 3.376 3.376 0 00-1.406-.299c-.994 0-1.85.355-2.566 1.065C1.264 8.143.905 8.995.905 9.99c0 1.008.359 1.868 1.076 2.578.717.71 1.572 1.065 2.566 1.065.497 0 .966-.103 1.406-.31.44-.205.817-.464 1.129-.777l4.835 2.812c0 .184-.018.351-.053.5a2.14 2.14 0 00-.054.5c0 .995.359 1.85 1.076 2.567.717.718 1.573 1.076 2.567 1.076.994 0 1.85-.358 2.566-1.076.717-.717 1.076-1.572 1.076-2.566 0-.994-.359-1.85-1.076-2.567-.717-.717-1.572-1.075-2.566-1.075zm0-10.906c.497 0 .923.178 1.278.533.354.355.532.788.532 1.3 0 .496-.178.922-.532 1.277a1.743 1.743 0 01-1.278.533c-.497 0-.923-.178-1.278-.533a1.743 1.743 0 01-.533-1.278c0-.511.178-.944.533-1.3a1.743 1.743 0 011.278-.532zM4.547 11.821c-.497 0-.923-.177-1.278-.532a1.768 1.768 0 01-.532-1.3c0-.497.177-.923.532-1.278a1.743 1.743 0 011.278-.532c.497 0 .923.177 1.278.532.355.355.533.781.533 1.278 0 .511-.178.945-.533 1.3a1.743 1.743 0 01-1.278.532zm10.906 6.347c-.497 0-.923-.177-1.278-.532a1.743 1.743 0 01-.533-1.278c0-.185.022-.348.064-.49.043-.142.107-.284.192-.426a1.59 1.59 0 01.65-.65c.29-.163.592-.245.905-.245.497 0 .923.178 1.278.533.354.355.532.78.532 1.278 0 .497-.178.923-.532 1.278a1.743 1.743 0 01-1.278.532z" fill="#fff"/></svg>