<svg width="50" height="50" fill="none" xmlns="http://www.w3.org/2000/svg"><rect opacity=".1" x=".5" y=".5" width="49" height="49" rx="24.5" stroke="#333"/><path d="M35.802 19.369a8.88 8.88 0 01-2.55.685 4.417 4.417 0 001.948-2.44 8.737 8.737 0 01-2.81 1.07 4.417 4.417 0 00-3.235-1.4 4.426 4.426 0 00-4.427 4.43c0 .342.042.685.11 1.015a12.582 12.582 0 01-9.13-4.635 4.397 4.397 0 00-.602 2.235 4.43 4.43 0 001.973 3.69 4.465 4.465 0 01-2.002-.563v.054a4.428 4.428 0 003.55 4.346 4.69 4.69 0 01-1.166.151c-.288 0-.56-.029-.836-.068a4.435 4.435 0 004.139 3.072 8.873 8.873 0 01-5.497 1.893 9.06 9.06 0 01-1.07-.055 12.537 12.537 0 006.8 1.987c8.143 0 12.598-6.746 12.598-12.6 0-.193 0-.385-.013-.577a9.536 9.536 0 002.22-2.29z" fill="#333"/></svg>