<svg width="36" height="36" fill="none" xmlns="http://www.w3.org/2000/svg"><rect opacity=".2" x=".5" y=".5" width="35" height="35" rx="17.5" stroke="#333"/><path fill-rule="evenodd" clip-rule="evenodd" d="M17.023 23.3h.978s.293-.05.44-.196c.146-.146.146-.44.146-.44s0-1.27.587-1.466c.586-.195 1.368 1.27 2.15 1.808.587.44 1.027.343 1.027.343l2.15-.05s1.124-.048.587-.977c-.05-.049-.294-.635-1.613-1.857-1.369-1.27-1.173-1.026.44-3.226.977-1.32 1.368-2.101 1.27-2.492-.097-.342-.83-.245-.83-.245H21.91s-.196-.049-.293.05c-.147.097-.196.244-.196.244s-.39 1.026-.88 1.906c-1.075 1.808-1.515 1.906-1.661 1.808-.391-.244-.294-1.075-.294-1.613 0-1.76.294-2.492-.537-2.688-.245-.049-.44-.098-1.124-.098-.88 0-1.613 0-2.004.196-.293.146-.489.44-.342.44.146 0 .537.097.733.342.195.44.195 1.173.195 1.173s.147 2.101-.342 2.346c-.342.195-.782-.196-1.76-1.857-.488-.831-.88-1.809-.88-1.809s-.048-.195-.195-.293a1.313 1.313 0 00-.39-.147H9.642s-.342 0-.488.147c-.098.147 0 .39 0 .39s1.808 4.204 3.86 6.355c1.907 2.052 4.008 1.906 4.008 1.906z" fill="#333"/></svg>