<svg width="36" height="36" fill="none" xmlns="http://www.w3.org/2000/svg"><path d="M8.43 7.5h20.604v20.626H8.43V7.5z" fill="#F7F7F7"/><path d="M18 0c-2.488 0-4.823.47-7.006 1.41S6.909 3.632 5.287 5.255C3.665 6.88 2.378 8.783 1.427 10.97.476 13.154 0 15.49 0 17.982c0 2.49.476 4.828 1.427 7.013.951 2.185 2.238 4.09 3.86 5.713 1.622 1.624 3.524 2.912 5.707 3.864S15.512 36 18 36c2.488 0 4.823-.476 7.006-1.428 2.183-.953 4.085-2.24 5.707-3.864 1.622-1.624 2.909-3.528 3.86-5.713C35.524 22.81 36 20.472 36 17.982s-.476-4.828-1.427-7.013c-.951-2.186-2.238-4.09-3.86-5.714-1.622-1.623-3.524-2.905-5.707-3.845C22.823.47 20.488 0 18 0zm4.244 12.415h-2.67c-.172 0-.33.098-.476.293-.147.195-.22.427-.22.696v1.978h3.366l-.476 2.783h-2.89v8.35h-3.183v-8.35h-2.89v-2.783h2.89v-1.649c0-1.171.366-2.179 1.098-3.02.731-.843 1.658-1.264 2.78-1.264h2.67v2.966z" fill="#415A94"/></svg>