<svg width="50" height="50" fill="none" xmlns="http://www.w3.org/2000/svg"><rect opacity=".1" x=".5" y=".5" width="49" height="49" rx="24.5" stroke="#333"/><path fill-rule="evenodd" clip-rule="evenodd" d="M23.644 32.36H25s.407-.067.611-.27c.204-.204.204-.612.204-.612s0-1.765.814-2.036c.815-.272 1.901 1.765 2.987 2.511.815.611 1.426.476 1.426.476l2.986-.068s1.562-.068.815-1.358c-.068-.068-.407-.882-2.24-2.58-1.9-1.764-1.63-1.425.61-4.48 1.358-1.832 1.901-2.918 1.766-3.462-.136-.475-1.154-.339-1.154-.339h-3.394s-.272-.068-.408.068c-.203.136-.271.34-.271.34s-.543 1.425-1.222 2.647c-1.493 2.511-2.104 2.647-2.308 2.511-.543-.339-.407-1.493-.407-2.24 0-2.443.407-3.462-.747-3.733-.34-.068-.61-.136-1.561-.136-1.222 0-2.24 0-2.783.272-.408.203-.68.61-.476.61.204 0 .747.136 1.019.476.271.61.271 1.629.271 1.629s.204 2.919-.475 3.258c-.475.272-1.086-.271-2.444-2.58-.678-1.153-1.222-2.511-1.222-2.511s-.067-.271-.271-.407c-.204-.136-.543-.204-.543-.204h-3.19s-.476 0-.68.204c-.135.203 0 .543 0 .543s2.512 5.838 5.363 8.824c2.648 2.851 5.567 2.648 5.567 2.648z" fill="#333"/></svg>