<svg width="36" height="36" fill="none" xmlns="http://www.w3.org/2000/svg"><path d="M7.493 7.5h20.605v20.626H7.493V7.5z" fill="#F7F7F7"/><path d="M21 17.689l-4.207-1.978c-.171-.098-.323-.104-.458-.018-.134.085-.2.238-.2.458v3.698c0 .196.066.336.2.422.134.085.287.079.458-.019L21 18.312c.195-.098.293-.208.293-.33 0-.122-.098-.22-.293-.293zM18 0c-2.488 0-4.823.47-7.006 1.41S6.909 3.632 5.287 5.255C3.665 6.88 2.378 8.783 1.427 10.97.476 13.154 0 15.49 0 17.982c0 2.49.476 4.828 1.427 7.013.951 2.185 2.238 4.09 3.86 5.713 1.622 1.624 3.524 2.912 5.707 3.864S15.512 36 18 36c2.488 0 4.823-.476 7.006-1.428 2.183-.953 4.085-2.24 5.707-3.864 1.622-1.624 2.909-3.528 3.86-5.713C35.524 22.81 36 20.472 36 17.982s-.476-4.828-1.427-7.013c-.951-2.186-2.238-4.09-3.86-5.714-1.622-1.623-3.524-2.905-5.707-3.845C22.823.47 20.488 0 18 0zm0 25.306c-4.61 0-7.323-.409-8.14-1.227-.817-.818-1.226-2.85-1.226-6.097 0-3.247.409-5.274 1.226-6.08.817-.805 3.53-1.208 8.14-1.208 4.61 0 7.323.403 8.14 1.208.817.806 1.226 2.833 1.226 6.08s-.409 5.28-1.226 6.097c-.817.818-3.53 1.227-8.14 1.227z" fill="#AF2222"/></svg>