<svg width="36" height="36" fill="none" xmlns="http://www.w3.org/2000/svg"><rect opacity=".2" x=".5" y=".5" width="35" height="35" rx="17.5" stroke="#333"/><path d="M25.778 13.945a6.39 6.39 0 01-1.836.494 3.18 3.18 0 001.402-1.757 6.294 6.294 0 01-2.023.77 3.18 3.18 0 00-2.329-1.008 3.187 3.187 0 00-3.187 3.19c0 .246.03.493.078.73a9.059 9.059 0 01-6.573-3.336 3.166 3.166 0 00-.434 1.61 3.19 3.19 0 001.421 2.656c-.505-.02-1-.16-1.441-.406v.04a3.188 3.188 0 002.556 3.129 3.378 3.378 0 01-.84.108c-.207 0-.404-.02-.602-.049a3.193 3.193 0 002.98 2.212 6.389 6.389 0 01-3.958 1.363 6.52 6.52 0 01-.77-.04 9.027 9.027 0 004.896 1.43c5.863 0 9.07-4.856 9.07-9.072 0-.138 0-.276-.009-.415a6.863 6.863 0 001.599-1.649z" fill="#333"/></svg>