<svg width="36" height="36" fill="none" xmlns="http://www.w3.org/2000/svg"><path d="M7.493 8.906h20.605v19.22H7.493V8.906z" fill="#F7F7F7"/><path d="M18 0c-2.488 0-4.823.47-7.006 1.41S6.909 3.632 5.287 5.255C3.665 6.88 2.378 8.783 1.427 10.97.476 13.154 0 15.49 0 17.982c0 2.49.476 4.828 1.427 7.013.951 2.185 2.238 4.09 3.86 5.713 1.622 1.624 3.524 2.912 5.707 3.864S15.512 36 18 36c2.488 0 4.823-.476 7.006-1.428 2.183-.953 4.085-2.24 5.707-3.864 1.622-1.624 2.909-3.528 3.86-5.713C35.524 22.81 36 20.472 36 17.982s-.476-4.828-1.427-7.013c-.951-2.186-2.238-4.09-3.86-5.714-1.622-1.623-3.524-2.905-5.707-3.845C22.823.47 20.488 0 18 0zm7.317 14.722v.476c0 1.172-.22 2.356-.659 3.553a10.1 10.1 0 01-1.939 3.24c-.853.965-1.902 1.753-3.146 2.363-1.244.61-2.683.916-4.317.916-1 0-1.957-.14-2.872-.422a11.406 11.406 0 01-2.58-1.153c.147 0 .294.006.44.018a6.895 6.895 0 002.799-.384 7.585 7.585 0 002.03-1.1 3.462 3.462 0 01-2.067-.732 3.714 3.714 0 01-1.262-1.757 4.6 4.6 0 00.348.055 3.243 3.243 0 00.805-.018l.457-.074a3.575 3.575 0 01-2.03-1.227 3.377 3.377 0 01-.824-2.252v-.037c.244.122.5.22.768.293.269.073.55.122.842.147a3.665 3.665 0 01-1.134-1.264 3.44 3.44 0 01-.44-1.703c0-.317.043-.629.129-.934.085-.305.2-.592.347-.86a10.446 10.446 0 003.201 2.618c1.257.672 2.629 1.044 4.116 1.117a1.871 1.871 0 01-.091-.42 4.257 4.257 0 01-.018-.385c0-.977.347-1.813 1.042-2.51.695-.695 1.53-1.043 2.506-1.043.512 0 .988.098 1.427.293.44.195.83.464 1.17.806a6.43 6.43 0 001.153-.33 7.977 7.977 0 001.08-.513 3.164 3.164 0 01-.586 1.117 4.26 4.26 0 01-.951.861 7.68 7.68 0 001.024-.22c.342-.097.671-.22.988-.366-.22.366-.482.702-.786 1.007-.305.306-.628.58-.97.824z" fill="#4BA0EE"/></svg>