<svg width="30" height="30" fill="none" xmlns="http://www.w3.org/2000/svg"><g filter="url(#filter0_d)" stroke="#F7F7F7" stroke-width="1.2"><circle cx="15" cy="15" r="10.4"/><path d="M5.387 15H24.9" stroke-linecap="round"/><path d="M22.7 8.4s-4.053 2.2-7.7 2.2c-3.646 0-7.7-2.2-7.7-2.2m15.4 13.2s-4.053-2.2-7.7-2.2c-3.646 0-7.7 2.2-7.7 2.2"/><path d="M15 24.82V5.1" stroke-linecap="round"/><path d="M15.55 5.1S20.5 8.4 20.5 15c0 7.7-4.95 10.45-4.95 10.45m-1.1 0s-4.95-3.3-4.95-9.9c0-7.7 4.95-10.45 4.95-10.45"/></g><defs><filter id="filter0_d" x="0" y="0" width="30" height="30" filterUnits="userSpaceOnUse" color-interpolation-filters="sRGB"><feFlood flood-opacity="0" result="BackgroundImageFix"/><feColorMatrix in="SourceAlpha" values="0 0 0 0 0 0 0 0 0 0 0 0 0 0 0 0 0 0 127 0"/><feOffset/><feGaussianBlur stdDeviation="2"/><feColorMatrix values="0 0 0 0 0 0 0 0 0 0 0 0 0 0 0 0 0 0 0.12 0"/><feBlend in2="BackgroundImageFix" result="effect1_dropShadow"/><feBlend in="SourceGraphic" in2="effect1_dropShadow" result="shape"/></filter></defs></svg>