<svg width="93" height="44" fill="none" xmlns="http://www.w3.org/2000/svg"><g opacity=".9"><path d="M48.535 24.126h-1.158v.308h4.001v-.308H50.22v-3.775h1.475c2.886 0 3.868-1.391 3.868-3.077 0-2.788-2.664-3.136-3.853-3.136h-4.334v.308h1.159v9.68zm1.685-4.077v-5.621h1.04c2.346 0 2.407 1.621 2.407 2.298v1.15c0 .976-.451 2.173-2.408 2.173H50.22zm13.212-4.015c.112-.304.183-.622.21-.945a.62.62 0 00-.41-.633.604.604 0 00-.266-.028h-.207v-.308h2.557v.308c-.304.006-.598.11-.839.298-.24.187-.416.447-.5.742L61.87 21.23c-1.097 2.99-2.106 3.384-2.743 3.384-1.128 0-2.064-.818-2.064-1.827 0-.659.345-1.231.99-1.231a.906.906 0 01.691.23.923.923 0 01.306.665.955.955 0 01-.286.659c-.161.206-.555.412-.555.615 0 .286.363.616 1.04.616.676 0 1.07-.727 1.399-1.339l-3.868-8.575h-1.04v-.308h4.143v.308h-1.265l2.965 6.55 1.85-4.944zm9.067-2.077v3.354h-.305c-.195-1.846-.81-3.056-2.572-3.056-.997 0-2.618.647-2.618 4v2.554c0 2.77 1.524 3.496 2.581 3.496 1.134 0 2.368-.79 2.82-3.305h.362l-.125 3.431h-.387c0-.142-.076-.615-.478-.615-.29.046-.565.164-.799.344a4.032 4.032 0 01-1.74.456c-2.579 0-4.13-2.52-4.13-5.668 0-2.899 2.033-4.988 4.422-4.991 1.174 0 1.405.508 2.003.49.17 0 .45 0 .61-.49h.356zm7.859 10.169H79.02v.308h4.142v-.308h-1.027l-3.432-9.997h-.27l-3.326 8.924c-.165.44-.57 1.024-1.234 1.07v.308h2.56v-.308c-.83-.046-.963-.307-.963-.738a2.71 2.71 0 01.283-1.04l.543-1.4h2.944l1.118 3.181zm-1.219-3.495h-2.764l1.472-3.905 1.292 3.905zm9.329-6.204c-1.77 0-1.548.616-1.658 4.924l-.058 2.532c-.045 1.923-.283 2.726-1.502 2.726-1.073 0-1.777-.57-1.777-1.498 0-.674.375-1.163 1.036-1.163a.872.872 0 01.634.216.889.889 0 01.299.605 1.406 1.406 0 01-.238.75.812.812 0 00-.15.413c0 .126.107.308.403.308.948 0 .948-1.29.981-2.348l.061-2.532c.073-3.148.043-2.348.043-3.323 0-.616-.058-1.606-1.308-1.606h-.36v-.308H93v.308h-1.158v9.695H93v.308h-4.008v-.308h1.158v-9.699h-1.682z" fill="#111"/><path fill-rule="evenodd" clip-rule="evenodd" d="M38.666 0H0v24.434h9.686a11.837 11.837 0 01-2.439-7.33c.004-1.929.462-3.83 1.336-5.546a12.155 12.155 0 013.691-4.324A12.008 12.008 0 0117.51 5.08a11.98 11.98 0 015.633.49 12.055 12.055 0 014.795 3.026 12.21 12.21 0 012.904 4.899 12.3 12.3 0 01.376 5.695 12.249 12.249 0 01-2.234 5.244h9.682V0z" fill="#111"/><path fill-rule="evenodd" clip-rule="evenodd" d="M43.439 44h-28.98V14.726a.23.23 0 01.127-.068l.07.068a43.245 43.245 0 0010.732 18.25 42.67 42.67 0 0018.05 10.88c.068 0 .068 0 .068.061a.068.068 0 01-.067.068V44z" fill="#888"/></g></svg>